<svg width="61" height="43" viewBox="0 0 61 43" fill="none" xmlns="http://www.w3.org/2000/svg">
<path d="M61 36.3846C61 38.1391 60.2859 39.8218 59.0148 41.0624C57.7438 42.303 56.0198 43 54.2222 43H6.77778C4.9802 43 3.25625 42.303 1.98517 41.0624C0.714085 39.8218 0 38.1391 0 36.3846V6.61538C0 4.86088 0.714085 3.17823 1.98517 1.9376C3.25625 0.696976 4.9802 0 6.77778 0H54.2222C56.0198 0 57.7438 0.696976 59.0148 1.9376C60.2859 3.17823 61 4.86088 61 6.61538V36.3846Z" fill="#141414"/>
<path d="M0 14H61V30H0V14Z" fill="#EEEEEE"/>
<path d="M54.2222 0H6.77778C4.9802 0 3.25625 0.737498 1.98517 2.05025C0.714085 3.36301 0 5.14348 0 7L0 14H61V7C61 5.14348 60.2859 3.36301 59.0148 2.05025C57.7438 0.737498 56.0198 0 54.2222 0Z" fill="#CE1225"/>
<path d="M28.2855 25.5514C28.2855 25.5514 28.3012 25.7805 28.515 25.895C28.515 25.895 28.4542 26.0673 28.6836 26.1672C28.9131 26.2671 29.7408 26.4247 31.1815 26.4247C32.6221 26.4247 33.4341 26.2817 33.6489 26.1809C33.8636 26.081 33.8783 25.8519 33.8783 25.8519C33.8783 25.8519 34.1078 25.7374 34.0931 25.5944C34.0774 25.4515 33.7715 25.2939 33.7715 25.2939C33.7715 25.2939 33.695 25.1078 33.4802 25.0364C33.2654 24.9649 32.576 25.3516 31.258 25.2939C29.9399 25.2371 29.1897 25.0501 28.9445 25.0648C28.6993 25.0794 28.5924 25.3085 28.5924 25.3085C28.5924 25.3085 28.3159 25.4231 28.2855 25.5514Z" fill="#BF9300"/>
<path d="M28.4542 25.5376C28.4414 25.6229 28.6385 25.8098 28.6385 25.8098C28.6385 25.8098 28.6385 26.0242 28.8376 26.082C29.0367 26.1397 29.8487 26.2826 31.1667 26.268C32.4848 26.2533 33.4194 26.1818 33.5263 26.0957C33.6332 26.0096 33.7254 25.8235 33.7254 25.8235C33.7254 25.8235 33.9401 25.6806 33.9244 25.566C33.9088 25.4515 33.6028 25.38 33.6028 25.38C33.6028 25.38 33.5165 25.2077 33.4145 25.1363C33.3125 25.0648 32.6535 25.4222 31.2432 25.4222C29.8634 25.4222 29.0671 25.1069 28.9298 25.1216C28.7915 25.1363 28.7003 25.3791 28.7003 25.3791C28.7003 25.3791 28.4699 25.4377 28.4542 25.5376Z" fill="#EEEEEE"/>
<path d="M34.2765 19.9816C34.2765 19.9816 34.2461 19.309 33.5871 19.3942C32.9281 19.4804 32.882 19.7809 32.1769 19.8524L32.0317 19.8652C31.9141 19.5673 31.8492 19.2535 31.8395 18.936C31.8395 18.5062 31.9778 18.3202 31.5021 18.1058C31.0275 17.8914 30.9353 18.0911 30.9353 18.0911C30.9353 18.0911 30.5675 17.9188 30.3989 18.0481C30.2302 18.1773 30.3224 18.5062 30.3989 18.4064C30.4754 18.3065 30.7823 18.5924 30.7823 18.5924C30.8863 19.068 30.5911 19.583 30.3891 19.8698C30.3194 19.8634 30.2635 19.8607 30.1851 19.8524C29.48 19.7809 29.4339 19.4804 28.7748 19.3942C28.1158 19.3081 28.0854 19.9816 28.0854 19.9816L27.8246 25.1793L28.361 24.7926L28.3639 24.7312L29.48 23.8048L29.6663 23.6306L29.2044 24.8925C29.2044 24.8925 28.4993 24.8494 28.6984 25.3791C28.6984 25.3791 28.8053 25.0785 28.9896 25.1353C29.174 25.1922 29.7094 25.3214 29.7094 25.3214L29.8938 25.5935L30.1233 25.3928L30.8431 25.3644C30.8431 25.3644 31.0726 25.4212 31.0579 25.6082C31.1001 25.5278 31.1128 25.4367 31.0942 25.3489L31.3109 25.3351C31.2876 25.4273 31.2994 25.5242 31.3442 25.6091C31.3286 25.4231 31.559 25.3653 31.559 25.3653L32.2788 25.3938L32.5093 25.5944L32.6937 25.3223C32.6937 25.3223 33.2291 25.1931 33.4125 25.1363C33.5959 25.0794 33.7038 25.38 33.7038 25.38C33.9029 24.8503 33.1978 24.8934 33.1978 24.8934L32.7574 23.6902L32.881 23.8057L33.997 24.7321L34 24.7935L34.5364 25.1802L34.2765 19.9816ZM31.2295 23.1321C30.1243 22.4943 30.0331 20.8843 30.0331 20.8843C30.0331 20.8843 30.7166 20.8513 31.2128 20.5259C31.66 20.8971 32.423 20.8549 32.423 20.8549C32.423 20.8549 32.371 22.4714 31.2295 23.1321ZM33.7558 19.7818L32.8212 20.6121L32.6643 20.6707C32.5034 20.6762 31.7208 20.6781 31.2275 20.2684C30.6146 20.6698 29.7722 20.6982 29.7722 20.6982L29.6418 20.6497L28.6072 19.7818L28.3355 19.8863C28.3473 19.7828 28.4081 19.55 28.7454 19.5958C29.2985 19.67 29.527 19.9541 30.1096 20.0109L30.2743 20.0265L30.2165 20.0962C30.3067 20.0962 30.4401 20.0714 30.5381 20.0513L30.6489 20.0613L30.5989 20.2245C30.6774 20.2025 30.7911 20.1392 30.8843 20.0833L31.1393 20.1062L31.1971 20.1814L31.3913 20.0907L31.5218 20.0788C31.6345 20.1401 31.7954 20.1951 31.7954 20.1951L31.8258 20.0522C31.964 20.1383 32.1935 20.1383 32.1935 20.1383C32.167 20.1182 32.1406 20.0668 32.1131 20.0229L32.2543 20.0091C32.8369 19.9523 33.0644 19.6682 33.6185 19.594C33.9558 19.5491 34.0166 19.7809 34.0284 19.8845L33.7558 19.7818Z" fill="#BF9300"/>
<path d="M30.8598 23.1037L30.3077 25.0648L29.3888 24.8934L30.339 22.3734L30.8598 23.1037ZM31.5453 23.1037L32.0964 25.0648L33.0163 24.8934L32.066 22.3734L31.5453 23.1037Z" fill="#EEEEEE"/>
<path d="M30.2626 21.0419C30.2626 21.0419 30.339 21.8721 30.7372 22.5163V20.8558C30.7372 20.8558 30.4763 20.9988 30.2626 21.0419ZM32.1778 21.0703C32.1778 21.0703 32.1013 21.9005 31.7032 22.5447V20.8843C31.7022 20.8843 31.9631 21.0272 32.1778 21.0703Z" fill="#BF9300"/>
<path d="M30.4459 18.235C30.4459 18.235 30.5528 18.1351 30.8598 18.3349C31.0589 18.465 31.2354 18.564 31.2354 18.564C31.2354 18.564 31.3609 18.4403 31.5453 18.4687C31.7297 18.4971 31.6267 18.7363 31.6571 19.2366C31.6875 19.7379 31.9023 19.9523 31.9023 19.9523L31.6414 19.8093L31.6571 19.967L31.3658 19.8377L31.2276 20.0238L31.0893 19.8231L30.8657 19.9505L30.798 19.78L30.5371 19.9092C30.5371 19.9092 30.9206 19.4657 30.951 18.9782C30.9598 18.8325 30.9206 18.5053 30.9206 18.5053C30.9206 18.5053 30.6764 18.2203 30.4459 18.235Z" fill="#EEEEEE"/>
<path d="M29.0671 25.6375C28.8916 25.7356 28.9602 25.7951 29.0671 25.8382C29.174 25.8813 29.8173 25.9537 31.1207 25.9812C32.4534 26.0096 33.2811 25.8666 33.388 25.8089C33.4949 25.7521 33.5106 25.6513 33.3272 25.6229C33.1428 25.5944 32.2239 25.7374 31.105 25.7374C29.7261 25.7383 29.1436 25.5944 29.0671 25.6375Z" fill="#BF9300"/>
</svg>
