<svg width="61" height="43" viewBox="0 0 61 43" fill="none" xmlns="http://www.w3.org/2000/svg">
<path d="M0 6.71296V13.2308H9.53633L0 6.71296ZM7.90289 43H22.0278V33.3465L7.90289 43ZM38.9722 33.3482V43H53.0954L38.9722 33.3482ZM0 29.7692V36.287L9.53972 29.7692H0ZM53.0988 0H38.9722V9.6535L53.0988 0ZM61 36.2887V29.7692H51.4586L61 36.2887ZM61 13.2308V6.71296L51.462 13.2308H61ZM22.0278 0H7.90289L22.0278 9.6535V0Z" fill="#00247D"/>
<path d="M42.5983 29.7692L59.0548 41.0171C59.8584 40.2089 60.4361 39.2129 60.7323 38.1245L48.5069 29.7692H42.5983ZM22.0278 29.7692H18.4L1.94522 41.0154C2.82803 41.8919 3.95992 42.5187 5.22906 42.8098L22.0278 31.3288V29.7692ZM38.9722 13.2308H42.6L59.0548 1.98462C58.1568 1.09531 57.0187 0.473052 55.7726 0.190201L38.9722 11.6712V13.2308ZM18.4 13.2308L1.94522 1.98462C1.14198 2.79331 0.563937 3.78904 0.266029 4.8772L12.4914 13.2308H18.4Z" fill="#CF1B2B"/>
<path d="M61 26.4615H35.5833V43H38.9722V33.3482L53.0954 43H54.2222C55.1224 43.0001 56.0136 42.8248 56.8434 42.4843C57.6733 42.1438 58.4251 41.6449 59.0548 41.017L42.5983 29.7692H48.5069L60.7323 38.1245C60.8899 37.5671 61 36.9899 61 36.3846V36.2887L51.4586 29.7692H61V26.4615ZM0 26.4615V29.7692H9.53972L0 36.287V36.3846C0 38.189 0.743861 39.8213 1.94522 41.0154L18.4 29.7692H22.0278V31.3288L5.22906 42.8082C5.72722 42.9239 6.24233 43 6.77778 43H7.90289L22.0278 33.3465V43H25.4167V26.4615H0ZM61 6.61539C61.001 4.88212 60.3021 3.21831 59.0548 1.98462L42.6 13.2308H38.9722V11.6712L55.7726 0.190193C55.2651 0.06868 54.7448 0.00485909 54.2222 6.25779e-07H53.0988L38.9722 9.6535V6.25779e-07H35.5833V16.5385H61V13.2308H51.462L61 6.71296V6.61539ZM22.0278 6.25779e-07V9.6535L7.90289 6.25779e-07H6.77778C5.87739 -0.000382323 4.98601 0.174999 4.1561 0.515827C3.32618 0.856654 2.57448 1.35604 1.94522 1.98462L18.4 13.2308H12.4914L0.266028 4.87719C0.0979053 5.44233 0.00842717 6.02697 0 6.61539L0 6.71296L9.53633 13.2308H0V16.5385H25.4167V6.25779e-07H22.0278Z" fill="#EEEEEE"/>
<path d="M35.5833 16.5385V0H25.4167V16.5385H0V26.4615H25.4167V43H35.5833V26.4615H61V16.5385H35.5833Z" fill="#CF1B2B"/>
</svg>
