<svg width="52" height="22" viewBox="0 0 52 22" fill="none" xmlns="http://www.w3.org/2000/svg">
<path d="M3.18 13.78H7.78V16H0.38V2.04H3.18V13.78ZM14.4797 16.18C13.413 16.18 12.453 15.9467 11.5997 15.48C10.7464 15 10.073 14.3267 9.57969 13.46C9.09969 12.5933 8.85969 11.5933 8.85969 10.46C8.85969 9.32667 9.10635 8.32667 9.59969 7.46C10.1064 6.59333 10.793 5.92667 11.6597 5.46C12.5264 4.98 13.493 4.74 14.5597 4.74C15.6264 4.74 16.593 4.98 17.4597 5.46C18.3264 5.92667 19.0064 6.59333 19.4997 7.46C20.0064 8.32667 20.2597 9.32667 20.2597 10.46C20.2597 11.5933 19.9997 12.5933 19.4797 13.46C18.973 14.3267 18.2797 15 17.3997 15.48C16.533 15.9467 15.5597 16.18 14.4797 16.18ZM14.4797 13.74C14.9864 13.74 15.4597 13.62 15.8997 13.38C16.353 13.1267 16.713 12.7533 16.9797 12.26C17.2464 11.7667 17.3797 11.1667 17.3797 10.46C17.3797 9.40667 17.0997 8.6 16.5397 8.04C15.993 7.46667 15.3197 7.18 14.5197 7.18C13.7197 7.18 13.0464 7.46667 12.4997 8.04C11.9664 8.6 11.6997 9.40667 11.6997 10.46C11.6997 11.5133 11.9597 12.3267 12.4797 12.9C13.013 13.46 13.6797 13.74 14.4797 13.74ZM26.6536 4.74C27.4803 4.74 28.2069 4.90667 28.8336 5.24C29.4603 5.56 29.9536 5.98 30.3136 6.5V4.92H33.1336V16.08C33.1336 17.1067 32.9269 18.02 32.5136 18.82C32.1003 19.6333 31.4803 20.2733 30.6536 20.74C29.8269 21.22 28.8269 21.46 27.6536 21.46C26.0803 21.46 24.7869 21.0933 23.7736 20.36C22.7736 19.6267 22.2069 18.6267 22.0736 17.36H24.8536C25.0003 17.8667 25.3136 18.2667 25.7936 18.56C26.2869 18.8667 26.8803 19.02 27.5736 19.02C28.3869 19.02 29.0469 18.7733 29.5536 18.28C30.0603 17.8 30.3136 17.0667 30.3136 16.08V14.36C29.9536 14.88 29.4536 15.3133 28.8136 15.66C28.1869 16.0067 27.4669 16.18 26.6536 16.18C25.7203 16.18 24.8669 15.94 24.0936 15.46C23.3203 14.98 22.7069 14.3067 22.2536 13.44C21.8136 12.56 21.5936 11.5533 21.5936 10.42C21.5936 9.3 21.8136 8.30667 22.2536 7.44C22.7069 6.57333 23.3136 5.90667 24.0736 5.44C24.8469 4.97333 25.7069 4.74 26.6536 4.74ZM30.3136 10.46C30.3136 9.78 30.1803 9.2 29.9136 8.72C29.6469 8.22667 29.2869 7.85333 28.8336 7.6C28.3803 7.33333 27.8936 7.2 27.3736 7.2C26.8536 7.2 26.3736 7.32667 25.9336 7.58C25.4936 7.83333 25.1336 8.20667 24.8536 8.7C24.5869 9.18 24.4536 9.75333 24.4536 10.42C24.4536 11.0867 24.5869 11.6733 24.8536 12.18C25.1336 12.6733 25.4936 13.0533 25.9336 13.32C26.3869 13.5867 26.8669 13.72 27.3736 13.72C27.8936 13.72 28.3803 13.5933 28.8336 13.34C29.2869 13.0733 29.6469 12.7 29.9136 12.22C30.1803 11.7267 30.3136 11.14 30.3136 10.46Z" fill="#23262A"/>
<path d="M37.2883 3.6C36.7949 3.6 36.3816 3.44667 36.0483 3.14C35.7283 2.82 35.5683 2.42667 35.5683 1.96C35.5683 1.49333 35.7283 1.10667 36.0483 0.799999C36.3816 0.479999 36.7949 0.319999 37.2883 0.319999C37.7816 0.319999 38.1883 0.479999 38.5083 0.799999C38.8416 1.10667 39.0083 1.49333 39.0083 1.96C39.0083 2.42667 38.8416 2.82 38.5083 3.14C38.1883 3.44667 37.7816 3.6 37.2883 3.6ZM38.6683 4.92V16H35.8683V4.92H38.6683ZM47.5747 4.76C48.8947 4.76 49.9614 5.18 50.7747 6.02C51.588 6.84667 51.9947 8.00667 51.9947 9.5V16H49.1947V9.88C49.1947 9 48.9747 8.32667 48.5347 7.86C48.0947 7.38 47.4947 7.14 46.7347 7.14C45.9614 7.14 45.348 7.38 44.8947 7.86C44.4547 8.32667 44.2347 9 44.2347 9.88V16H41.4347V4.92H44.2347V6.3C44.608 5.82 45.0814 5.44667 45.6547 5.18C46.2414 4.9 46.8814 4.76 47.5747 4.76Z" fill="#4A72FF"/>
</svg>
