<svg width="61" height="61" viewBox="0 0 61 61" fill="none" xmlns="http://www.w3.org/2000/svg">
<path fill-rule="evenodd" clip-rule="evenodd" d="M57.4096 0C58.1988 0 58.9874 0 59.7766 0C58.2944 18.9175 49.1421 32.6461 32.3194 41.1858C32.1618 41.1067 32.0036 41.0282 31.846 40.9491C37.318 29.3707 44.1033 18.6401 52.2022 8.7579C51.8864 8.44214 51.5712 8.44214 51.2554 8.7579C46.4371 13.2609 41.9398 18.0735 37.7635 23.1966C34.5718 28.3174 31.8891 33.6824 29.7157 39.2922C27.9196 23.7117 33.8371 12.1134 47.4682 4.4973C50.8246 2.97485 54.1384 1.47559 57.4096 0Z" fill="#23262A"/>
<path fill-rule="evenodd" clip-rule="evenodd" d="M2.49521 10.4148C10.7357 11.4999 17.7581 14.9718 23.5615 20.8296C26.2561 25.2493 26.8871 29.9833 25.4551 35.0316C22.0348 26.0896 15.9592 19.8563 7.22921 16.3323C14.2081 21.6543 19.7312 28.2028 23.7982 35.9784C15.3125 34.9985 9.23737 30.5802 5.57231 22.7232C4.09861 18.722 3.07276 14.6191 2.49521 10.4148Z" fill="#23262A"/>
<path fill-rule="evenodd" clip-rule="evenodd" d="M15.277 36.4518C15.7485 36.4111 16.1429 36.5692 16.4605 36.9252C19.1433 41.5016 21.8255 46.0774 24.5083 50.6538C24.8241 51.2848 24.8241 51.9164 24.5083 52.5474C20.5999 55.0152 16.576 57.3032 12.4366 59.4117C7.10139 61.2021 3.23513 59.5452 0.838305 54.441C-0.928424 49.9073 0.0974343 46.1986 3.9154 43.3161C7.81149 41.1347 11.5987 38.8467 15.277 36.4518Z" fill="#4A72FF"/>
<path fill-rule="evenodd" clip-rule="evenodd" d="M44.6278 36.4518C48.7814 38.6086 52.8839 40.8966 56.9362 43.3161C60.5644 45.9515 61.7479 49.502 60.4867 53.9676C58.3361 58.792 54.6275 60.7647 49.3618 59.8851C44.9071 57.6189 40.5679 55.1734 36.3433 52.5474C36.384 51.0316 36.8574 49.6114 37.7635 48.2868C40.1438 44.4045 42.4322 40.4596 44.6278 36.4518Z" fill="#4A72FF"/>
<path fill-rule="evenodd" clip-rule="evenodd" d="M18.5908 53.0208C19.4803 52.9701 19.638 53.2068 19.0642 53.7309C16.3303 55.3589 13.4899 56.7791 10.543 57.9915C8.37531 58.5179 6.48171 58.0445 4.86221 56.5713C9.87079 57.0944 14.4471 55.9109 18.5908 53.0208Z" fill="white"/>
<path fill-rule="evenodd" clip-rule="evenodd" d="M41.314 53.4942C41.3424 53.2371 41.5001 53.0795 41.7874 53.0208C46.1295 56.0245 50.8635 57.208 55.9894 56.5713C54.19 58.0029 52.1388 58.4763 49.8352 57.9915C46.9072 56.6068 44.0668 55.108 41.314 53.4942Z" fill="white"/>
</svg>
