<svg width="248" height="257" viewBox="0 0 248 257" fill="none" xmlns="http://www.w3.org/2000/svg">
<path d="M248 132.568C248 159.299 239.6 184.03 225.286 204.306C222.696 207.955 219.931 211.498 216.956 214.83C208.732 224.162 199.107 232.265 188.432 238.79C183.218 241.982 177.758 244.789 172.088 247.174C161.483 251.665 150.109 254.681 138.244 256.05C134.78 256.435 131.28 256.716 127.745 256.821C126.485 256.856 125.225 256.892 123.965 256.892C114.48 256.892 105.241 255.839 96.3861 253.804C83.8216 250.963 71.9921 246.192 61.2125 239.843C58.7976 238.439 56.4527 236.931 54.1428 235.352C53.7578 235.107 53.4078 234.826 53.0229 234.581C51.7279 233.668 50.433 232.756 49.173 231.774C46.2331 229.529 43.3983 227.179 40.6684 224.688C39.9684 224.057 39.2684 223.39 38.5684 222.723C29.3288 213.918 21.4541 203.745 15.2594 192.449C5.52977 174.664 0 154.282 0 132.568C0 121.728 1.39994 111.204 3.98984 101.171C6.68473 90.717 10.7096 80.8244 15.8894 71.6334C17.9893 67.8447 20.3342 64.2315 22.8191 60.6884C23.1691 60.1973 23.5191 59.7061 23.869 59.215C23.974 59.0747 24.044 58.9695 24.149 58.8291C24.849 57.8469 25.584 56.8997 26.3189 55.9877C30.4138 50.7607 34.8936 45.8495 39.7584 41.3592C40.2834 40.833 40.8433 40.3419 41.4033 39.8508L41.4383 39.8157C42.5583 38.7984 43.6782 37.8512 44.8332 36.869C46.4081 35.571 47.9831 34.3081 49.593 33.0803C51.2379 31.8525 52.9179 30.6598 54.5978 29.5022C54.7728 29.3969 54.9478 29.2566 55.1228 29.1514C55.3678 28.976 55.6127 28.8006 55.8577 28.6602C58.1676 27.1518 60.5125 25.6784 62.9275 24.3103C63.4174 24.0297 63.9424 23.749 64.4674 23.4684C65.4474 22.9422 66.4623 22.3809 67.4423 21.8898C67.4423 21.8898 67.4423 21.8898 67.4773 21.8898C68.5972 21.3285 69.7172 20.7672 70.8371 20.241C70.9771 20.1709 71.1521 20.1007 71.2921 20.0305C71.7821 19.785 72.2721 19.5745 72.7271 19.364C79.0268 16.4874 85.6415 14.102 92.4663 12.3129C92.9212 12.1726 93.4112 12.0673 93.8662 11.9621C95.0212 11.6815 96.2111 11.4008 97.3661 11.1553C105.941 9.26093 114.865 8.27869 124.035 8.27869C192.492 8.27869 248 63.9158 248 132.568Z" fill="#D1D9F6"/>
<path d="M94.0444 12.1758C93.5894 12.281 93.0994 12.4214 92.6444 12.5266C85.8197 14.3157 79.205 16.7011 72.9053 19.5777C72.4153 19.7882 71.9253 20.0338 71.4703 20.2442C71.3303 20.3144 71.1553 20.3846 71.0153 20.4547C69.8954 20.9809 68.7754 21.5422 67.6555 22.1035C67.6555 22.1035 67.6555 22.1035 67.6205 22.1035C66.6055 22.6297 65.6255 23.1559 64.6456 23.6821C64.1206 23.9627 63.6306 24.2434 63.1056 24.524C60.6907 25.8921 58.3458 27.3304 56.0359 28.8739C55.7909 29.0493 55.5459 29.1897 55.3009 29.3651C55.126 29.4703 54.951 29.6106 54.776 29.7159C53.061 30.8735 51.4161 32.0662 49.7712 33.294C48.1612 34.5218 46.5513 35.7847 45.0114 37.0827C43.8564 38.0299 42.7365 39.0121 41.6165 40.0294L41.5815 40.0645C41.0215 40.5556 40.4966 41.0467 39.9366 41.573C35.0718 46.0632 30.5919 50.9744 26.4971 56.2014C25.7621 57.1485 25.0272 58.0957 24.3272 59.0428C24.2222 59.1832 24.1522 59.2884 24.0472 59.4287C23.6972 59.9199 23.3472 60.411 22.9973 60.9021V78.7579H97.5443V11.369C96.3893 11.6145 95.1993 11.8952 94.0444 12.1758Z" fill="#F0F3FF"/>
<path d="M94.0444 12.1758V75.2498H26.4971V56.2364C30.592 51.0095 35.0718 46.0983 39.9366 41.608C40.4616 41.0818 41.0216 40.5907 41.5815 40.0996L41.6165 40.0645C42.7365 39.0472 43.8564 38.1 45.0114 37.1177C46.5863 35.8198 48.1613 34.5569 49.7712 33.3291C51.4161 32.1013 53.0961 30.9086 54.776 29.7509C54.951 29.6457 55.126 29.5054 55.301 29.4001C55.546 29.2247 55.791 29.0493 56.0359 28.909C58.3459 27.4006 60.6908 25.9272 63.1057 24.5591C63.5956 24.2784 64.1206 23.9978 64.6456 23.7171C65.6256 23.1909 66.6405 22.6297 67.6205 22.1385C67.6205 22.1385 67.6205 22.1385 67.6555 22.1385C68.7754 21.5773 69.8954 21.016 71.0153 20.4898C71.1553 20.4196 71.3303 20.3495 71.4703 20.2793C71.9603 20.0337 72.4503 19.8232 72.9053 19.6128C79.205 16.7362 85.8197 14.3508 92.6445 12.5617C93.0994 12.4213 93.5894 12.281 94.0444 12.1758Z" fill="#D1D9F6"/>
<path d="M92.6445 12.5266V73.8467H26.4971V56.2365C30.592 51.0095 35.0718 46.0983 39.9366 41.608C40.4616 41.0818 41.0216 40.5907 41.5815 40.0996L41.6165 40.0645C42.7365 39.0472 43.8564 38.1 45.0114 37.1178C46.5863 35.8198 48.1613 34.5569 49.7712 33.3291C51.4161 32.1013 53.0961 30.9086 54.776 29.751C54.951 29.6457 55.126 29.5054 55.301 29.4002C55.546 29.2248 55.791 29.0494 56.036 28.909C58.3459 27.4006 60.6908 25.9272 63.1057 24.5591C63.5957 24.2785 64.1206 23.9978 64.6456 23.7172C65.6256 23.191 66.6405 22.6297 67.6205 22.1386C67.6205 22.1386 67.6205 22.1386 67.6555 22.1386C68.7754 21.5773 69.8954 21.016 71.0153 20.4898C71.1553 20.4196 71.3303 20.3495 71.4703 20.2793C71.9603 20.0338 72.4503 19.8233 72.9053 19.6128C79.205 16.7011 85.8197 14.3508 92.6445 12.5266Z" fill="#DCE2F7"/>
<path d="M67.6555 22.1386L26.4971 73.8467V56.2365C30.592 51.0095 35.0718 46.0983 39.9366 41.6081C40.4616 41.0819 41.0216 40.5907 41.5815 40.0996L41.6165 40.0646C42.7365 39.0472 43.8564 38.1001 45.0114 37.1178C46.5863 35.8199 48.1613 34.557 49.7712 33.3292C51.4161 32.1014 53.0961 30.9086 54.776 29.751C54.951 29.6458 55.126 29.5054 55.301 29.4002C55.546 29.2248 55.791 29.0494 56.0359 28.9091C58.3459 27.4006 60.6908 25.9273 63.1057 24.5591C63.5956 24.2785 64.1206 23.9979 64.6456 23.7172C65.6256 23.191 66.6055 22.6648 67.6555 22.1386C67.6205 22.1386 67.6205 22.1386 67.6555 22.1386Z" fill="white"/>
<path d="M70.6653 216.097V218.728C54.846 205.152 44.2764 219.184 40.9165 224.867C40.2166 224.235 39.5166 223.569 38.8166 222.902C53.026 200.1 70.6653 216.097 70.6653 216.097Z" fill="#4A72FF"/>
<path d="M109.619 207.256C86.2397 176.351 62.2657 219.184 54.391 235.531C54.006 235.285 53.656 235.005 53.2711 234.759C58.6258 223.569 71.9953 197.504 85.0148 185.998C101.814 171.159 110.214 191.155 113.469 203.643C116.758 216.167 109.619 207.256 109.619 207.256ZM71.6453 190.874C71.6453 190.874 83.8598 166.072 102.759 159.793C127.503 151.584 106.469 148.462 92.7495 151.83C79.31 155.162 71.6453 190.874 71.6453 190.874Z" fill="#4A72FF"/>
<path d="M225.499 204.52C223.014 208.063 220.319 211.466 217.484 214.693C217.379 214.799 217.274 214.939 217.169 215.044C217.064 215.149 216.959 215.29 216.854 215.395C208.84 224.446 199.53 232.269 189.206 238.653C189.031 238.758 188.821 238.899 188.646 239.004C188.471 239.109 188.261 239.249 188.051 239.355C183.256 242.231 178.286 244.792 173.106 247.037C172.826 247.143 172.546 247.283 172.301 247.388C172.021 247.493 171.741 247.634 171.461 247.739C161.207 251.984 150.252 254.895 138.808 256.228C138.703 256.228 138.563 256.263 138.458 256.263C138.353 256.263 138.213 256.298 138.108 256.298C134.783 256.684 131.388 256.93 127.958 257V204.52H225.499Z" fill="#A7B5E5"/>
<path d="M217.484 214.693H138.143V239.355H188.086C188.261 239.249 188.471 239.109 188.681 239.004C188.856 238.899 189.066 238.758 189.241 238.653H138.843V215.395H216.889L217.484 214.693ZM173.141 247.037C172.861 247.142 172.581 247.283 172.336 247.388C172.056 247.493 171.776 247.634 171.496 247.739H138.843V256.228C138.738 256.228 138.598 256.263 138.493 256.263C138.388 256.263 138.248 256.298 138.143 256.298V247.037H173.141Z" fill="#454C64"/>
<path d="M215.175 53.5703H121.063C118.928 53.5703 117.178 51.8163 117.178 49.6764V7.82584C117.178 5.68595 118.928 3.93195 121.063 3.93195H215.175C217.309 3.93195 219.059 5.68595 219.059 7.82584V49.6764C219.024 51.8163 217.309 53.5703 215.175 53.5703Z" fill="white"/>
<path d="M146.052 16.4556V41.152C146.052 42.0641 145.317 42.8358 144.372 42.8358H134.713C133.803 42.8358 133.033 42.0991 133.033 41.152V16.4556H146.052Z" fill="#4B70F2"/>
<path d="M146.052 23.4014H133.068V35.8548H146.052V23.4014Z" fill="#D1D9F6"/>
<path d="M146.437 14.3506H132.648C132.368 14.3506 132.158 14.5611 132.158 14.8418V17.999C132.158 18.2796 132.368 18.4901 132.648 18.4901H146.437C146.717 18.4901 146.927 18.2796 146.927 17.999V14.8418C146.927 14.5611 146.717 14.3506 146.437 14.3506Z" fill="#4967D2"/>
<path d="M133.698 17.7184C133.628 17.7184 133.558 17.6483 133.558 17.5781V15.1576C133.558 15.0874 133.628 15.0173 133.698 15.0173C133.768 15.0173 133.838 15.0874 133.838 15.1576V17.5781C133.803 17.6834 133.768 17.7184 133.698 17.7184ZM134.993 17.7184C134.923 17.7184 134.853 17.6483 134.853 17.5781V15.1576C134.853 15.0874 134.923 15.0173 134.993 15.0173C135.063 15.0173 135.133 15.0874 135.133 15.1576V17.5781C135.098 17.6834 135.063 17.7184 134.993 17.7184ZM136.253 17.7184C136.183 17.7184 136.113 17.6483 136.113 17.5781V15.1576C136.113 15.0874 136.183 15.0173 136.253 15.0173C136.323 15.0173 136.393 15.0874 136.393 15.1576V17.5781C136.393 17.6834 136.323 17.7184 136.253 17.7184ZM137.548 17.7184C137.478 17.7184 137.408 17.6483 137.408 17.5781V15.1576C137.408 15.0874 137.478 15.0173 137.548 15.0173C137.618 15.0173 137.688 15.0874 137.688 15.1576V17.5781C137.688 17.6834 137.618 17.7184 137.548 17.7184ZM138.843 17.7184C138.773 17.7184 138.703 17.6483 138.703 17.5781V15.1576C138.703 15.0874 138.773 15.0173 138.843 15.0173C138.913 15.0173 138.983 15.0874 138.983 15.1576V17.5781C138.983 17.6834 138.913 17.7184 138.843 17.7184ZM140.137 17.7184C140.067 17.7184 139.997 17.6483 139.997 17.5781V15.1576C139.997 15.0874 140.067 15.0173 140.137 15.0173C140.207 15.0173 140.277 15.0874 140.277 15.1576V17.5781C140.242 17.6834 140.207 17.7184 140.137 17.7184ZM141.432 17.7184C141.362 17.7184 141.292 17.6483 141.292 17.5781V15.1576C141.292 15.0874 141.362 15.0173 141.432 15.0173C141.502 15.0173 141.572 15.0874 141.572 15.1576V17.5781C141.537 17.6834 141.502 17.7184 141.432 17.7184ZM142.727 17.7184C142.657 17.7184 142.587 17.6483 142.587 17.5781V15.1576C142.587 15.0874 142.657 15.0173 142.727 15.0173C142.797 15.0173 142.867 15.0874 142.867 15.1576V17.5781C142.832 17.6834 142.762 17.7184 142.727 17.7184ZM143.987 17.7184C143.917 17.7184 143.847 17.6483 143.847 17.5781V15.1576C143.847 15.0874 143.917 15.0173 143.987 15.0173C144.057 15.0173 144.127 15.0874 144.127 15.1576V17.5781C144.127 17.6834 144.057 17.7184 143.987 17.7184ZM145.282 17.7184C145.212 17.7184 145.142 17.6483 145.142 17.5781V15.1576C145.142 15.0874 145.212 15.0173 145.282 15.0173C145.352 15.0173 145.422 15.0874 145.422 15.1576V17.5781C145.422 17.6834 145.352 17.7184 145.282 17.7184Z" fill="white"/>
<path d="M140.383 27.6461H138.773V31.6453H140.383V27.6461Z" fill="#4967D2"/>
<path d="M137.573 28.7996V30.4133H141.563V28.7996H137.573Z" fill="#4967D2"/>
<path d="M163.307 20.6301H183.186" stroke="#D1D9F6" stroke-width="2.0625" stroke-miterlimit="10" stroke-linecap="round" stroke-linejoin="round"/>
<path d="M163.307 28.7687H204.885" stroke="#D1D9F6" stroke-width="2.0625" stroke-miterlimit="10" stroke-linecap="round" stroke-linejoin="round"/>
<path d="M163.307 36.8723H197.885" stroke="#D1D9F6" stroke-width="2.0625" stroke-miterlimit="10" stroke-linecap="round" stroke-linejoin="round"/>
<path d="M215.175 120.609H121.063C118.928 120.609 117.178 118.855 117.178 116.715V74.8641C117.178 72.7242 118.928 70.9702 121.063 70.9702H215.175C217.309 70.9702 219.059 72.7242 219.059 74.8641V116.715C219.024 118.855 217.309 120.609 215.175 120.609Z" fill="white"/>
<path d="M150.182 89.4924V108.716C150.182 109.628 149.447 110.365 148.537 110.365H131.213C130.303 110.365 129.568 109.628 129.568 108.716V89.4924C129.568 88.2997 130.198 87.2122 131.248 86.6509L134.573 84.7917C135.098 84.511 135.413 83.9498 135.413 83.3534V81.9853C135.413 81.7046 135.623 81.4941 135.903 81.4941H143.812C144.092 81.4941 144.302 81.7046 144.302 81.9853V83.3534C144.302 83.9498 144.617 84.511 145.142 84.7917L148.502 86.6509C149.552 87.1771 150.182 88.2997 150.182 89.4924Z" fill="#4B70F2"/>
<path d="M150.182 91.5271H129.603V105.91H150.182V91.5271Z" fill="#D1D9F6"/>
<path d="M144.862 81.9152H134.923C134.643 81.9152 134.433 81.7047 134.433 81.4241V78.4423C134.433 78.1617 134.643 77.9512 134.923 77.9512H144.862C145.142 77.9512 145.352 78.1617 145.352 78.4423V81.4241C145.317 81.6697 145.107 81.9152 144.862 81.9152Z" fill="#4967D2"/>
<path d="M135.413 81.2136C135.343 81.2136 135.308 81.1435 135.308 81.1084V78.758C135.308 78.6878 135.378 78.6528 135.413 78.6528C135.483 78.6528 135.518 78.7229 135.518 78.758V81.0733C135.518 81.1435 135.483 81.2136 135.413 81.2136ZM136.673 81.2136C136.603 81.2136 136.568 81.1435 136.568 81.1084V78.758C136.568 78.6878 136.638 78.6528 136.673 78.6528C136.708 78.6528 136.778 78.7229 136.778 78.758V81.0733C136.778 81.1435 136.743 81.2136 136.673 81.2136ZM137.933 81.2136C137.863 81.2136 137.828 81.1435 137.828 81.1084V78.758C137.828 78.6878 137.898 78.6528 137.933 78.6528C138.003 78.6528 138.038 78.7229 138.038 78.758V81.0733C138.073 81.1435 138.003 81.2136 137.933 81.2136ZM139.228 81.2136C139.158 81.2136 139.123 81.1435 139.123 81.1084V78.758C139.123 78.6878 139.193 78.6528 139.228 78.6528C139.263 78.6528 139.333 78.7229 139.333 78.758V81.0733C139.333 81.1435 139.263 81.2136 139.228 81.2136ZM140.488 81.2136C140.418 81.2136 140.383 81.1435 140.383 81.1084V78.758C140.383 78.6878 140.453 78.6528 140.488 78.6528C140.558 78.6528 140.593 78.7229 140.593 78.758V81.0733C140.593 81.1435 140.558 81.2136 140.488 81.2136ZM141.747 81.2136C141.677 81.2136 141.642 81.1435 141.642 81.1084V78.758C141.642 78.6878 141.712 78.6528 141.747 78.6528C141.782 78.6528 141.852 78.7229 141.852 78.758V81.0733C141.852 81.1435 141.817 81.2136 141.747 81.2136ZM143.007 81.2136C142.937 81.2136 142.902 81.1435 142.902 81.1084V78.758C142.902 78.6878 142.972 78.6528 143.007 78.6528C143.077 78.6528 143.112 78.7229 143.112 78.758V81.0733C143.147 81.1435 143.077 81.2136 143.007 81.2136ZM144.302 81.2136C144.232 81.2136 144.197 81.1435 144.197 81.1084V78.758C144.197 78.6878 144.267 78.6528 144.302 78.6528C144.337 78.6528 144.407 78.7229 144.407 78.758V81.0733C144.407 81.1435 144.337 81.2136 144.302 81.2136Z" fill="white"/>
<path d="M140.873 94.8948H138.213V101.56H140.873V94.8948Z" fill="#4967D2"/>
<path d="M136.236 96.8968V99.5629H142.886V96.8968H136.236Z" fill="#4967D2"/>
<path d="M163.307 87.7033H183.186" stroke="#D1D9F6" stroke-width="2.0625" stroke-miterlimit="10" stroke-linecap="round" stroke-linejoin="round"/>
<path d="M163.307 95.8068H204.885" stroke="#D1D9F6" stroke-width="2.0625" stroke-miterlimit="10" stroke-linecap="round" stroke-linejoin="round"/>
<path d="M163.307 103.91H197.885" stroke="#D1D9F6" stroke-width="2.0625" stroke-miterlimit="10" stroke-linecap="round" stroke-linejoin="round"/>
<path d="M215.175 187.366H121.063C118.928 187.366 117.178 185.612 117.178 183.472V141.622C117.178 139.482 118.928 137.728 121.063 137.728H215.175C217.309 137.728 219.059 139.482 219.059 141.622V183.472C219.024 185.612 217.309 187.366 215.175 187.366Z" fill="white"/>
<path d="M147.067 151.093H132.053V148.778C132.053 148.532 132.263 148.322 132.508 148.322H146.577C146.822 148.322 147.032 148.532 147.032 148.778V151.093H147.067Z" fill="#4967D2"/>
<path d="M147.067 151.093L146.017 159.758L145.107 167.23L144.372 173.088C144.337 173.334 144.162 173.474 143.917 173.474H135.238C134.993 173.474 134.818 173.299 134.783 173.088L134.048 167.23L133.138 159.758L132.088 151.093H147.067Z" fill="#4B70F2"/>
<path d="M143.777 173.474V175.86C143.777 176.386 143.357 176.772 142.867 176.772H136.288C135.798 176.772 135.378 176.351 135.378 175.86V173.474H143.777Z" fill="#3F61DB"/>
<path d="M143.777 173.474H135.343V173.755H143.777V173.474Z" fill="#3F61DB"/>
<path d="M145.982 159.758L145.072 167.23H134.048L133.138 159.758H145.982Z" fill="#D1D9F6"/>
<path d="M143.777 175.404H135.343V175.649H143.777V175.404Z" fill="#6682E8"/>
<path d="M140.523 175.158H138.563V175.649H140.523V175.158Z" fill="#6682E8"/>
<path d="M132.998 148.848C132.963 148.848 132.928 148.883 132.928 148.918V150.286C132.928 150.321 132.963 150.356 132.998 150.356C133.033 150.356 133.068 150.321 133.068 150.286V148.918C133.068 148.883 133.033 148.848 132.998 148.848ZM133.698 148.848C133.663 148.848 133.628 148.883 133.628 148.918V150.286C133.628 150.321 133.663 150.356 133.698 150.356C133.733 150.356 133.768 150.321 133.768 150.286V148.918C133.768 148.883 133.733 148.848 133.698 148.848ZM134.433 148.848C134.398 148.848 134.363 148.883 134.363 148.918V150.286C134.363 150.321 134.398 150.356 134.433 150.356C134.468 150.356 134.503 150.321 134.503 150.286V148.918C134.503 148.883 134.468 148.848 134.433 148.848ZM135.133 148.848C135.098 148.848 135.063 148.883 135.063 148.918V150.286C135.063 150.321 135.098 150.356 135.133 150.356C135.168 150.356 135.203 150.321 135.203 150.286V148.918C135.203 148.883 135.168 148.848 135.133 148.848ZM135.868 148.848C135.833 148.848 135.798 148.883 135.798 148.918V150.286C135.798 150.321 135.833 150.356 135.868 150.356C135.903 150.356 135.938 150.321 135.938 150.286V148.918C135.938 148.883 135.903 148.848 135.868 148.848ZM136.568 148.848C136.533 148.848 136.498 148.883 136.498 148.918V150.286C136.498 150.321 136.533 150.356 136.568 150.356C136.603 150.356 136.638 150.321 136.638 150.286V148.918C136.638 148.883 136.603 148.848 136.568 148.848ZM137.303 148.848C137.268 148.848 137.233 148.883 137.233 148.918V150.286C137.233 150.321 137.268 150.356 137.303 150.356C137.338 150.356 137.373 150.321 137.373 150.286V148.918C137.373 148.883 137.338 148.848 137.303 148.848ZM138.003 148.848C137.968 148.848 137.933 148.883 137.933 148.918V150.286C137.933 150.321 137.968 150.356 138.003 150.356C138.038 150.356 138.073 150.321 138.073 150.286V148.918C138.073 148.883 138.038 148.848 138.003 148.848ZM138.738 148.848C138.703 148.848 138.668 148.883 138.668 148.918V150.286C138.668 150.321 138.703 150.356 138.738 150.356C138.773 150.356 138.808 150.321 138.808 150.286V148.918C138.808 148.883 138.773 148.848 138.738 148.848ZM139.438 148.848C139.403 148.848 139.368 148.883 139.368 148.918V150.286C139.368 150.321 139.403 150.356 139.438 150.356C139.473 150.356 139.508 150.321 139.508 150.286V148.918C139.508 148.883 139.473 148.848 139.438 148.848ZM140.173 148.848C140.138 148.848 140.103 148.883 140.103 148.918V150.286C140.103 150.321 140.138 150.356 140.173 150.356C140.208 150.356 140.243 150.321 140.243 150.286V148.918C140.243 148.883 140.208 148.848 140.173 148.848ZM140.872 148.848C140.837 148.848 140.803 148.883 140.803 148.918V150.286C140.803 150.321 140.837 150.356 140.872 150.356C140.907 150.356 140.942 150.321 140.942 150.286V148.918C140.942 148.883 140.907 148.848 140.872 148.848ZM141.607 148.848C141.572 148.848 141.537 148.883 141.537 148.918V150.286C141.537 150.321 141.572 150.356 141.607 150.356C141.642 150.356 141.677 150.321 141.677 150.286V148.918C141.677 148.883 141.642 148.848 141.607 148.848ZM142.307 148.848C142.272 148.848 142.237 148.883 142.237 148.918V150.286C142.237 150.321 142.272 150.356 142.307 150.356C142.342 150.356 142.377 150.321 142.377 150.286V148.918C142.377 148.883 142.342 148.848 142.307 148.848ZM143.042 148.848C143.007 148.848 142.972 148.883 142.972 148.918V150.286C142.972 150.321 143.007 150.356 143.042 150.356C143.077 150.356 143.112 150.321 143.112 150.286V148.918C143.077 148.883 143.077 148.848 143.042 148.848ZM143.742 148.848C143.707 148.848 143.672 148.883 143.672 148.918V150.286C143.672 150.321 143.707 150.356 143.742 150.356C143.777 150.356 143.812 150.321 143.812 150.286V148.918C143.812 148.883 143.777 148.848 143.742 148.848ZM144.477 148.848C144.442 148.848 144.407 148.883 144.407 148.918V150.286C144.407 150.321 144.442 150.356 144.477 150.356C144.512 150.356 144.547 150.321 144.547 150.286V148.918C144.512 148.883 144.512 148.848 144.477 148.848ZM145.177 148.848C145.142 148.848 145.107 148.883 145.107 148.918V150.286C145.107 150.321 145.142 150.356 145.177 150.356C145.212 150.356 145.247 150.321 145.247 150.286V148.918C145.247 148.883 145.212 148.848 145.177 148.848ZM145.912 148.848C145.877 148.848 145.842 148.883 145.842 148.918V150.286C145.842 150.321 145.877 150.356 145.912 150.356C145.947 150.356 145.982 150.321 145.982 150.286V148.918C145.947 148.883 145.947 148.848 145.912 148.848Z" fill="white"/>
<path d="M140.103 161.863H138.983V164.669H140.103V161.863Z" fill="#4967D2"/>
<path d="M138.157 162.704V163.827H140.957V162.704H138.157Z" fill="#4967D2"/>
<path d="M163.307 155.162H183.186" stroke="#D1D9F6" stroke-width="2.0625" stroke-miterlimit="10" stroke-linecap="round" stroke-linejoin="round"/>
<path d="M163.307 163.266H204.885" stroke="#D1D9F6" stroke-width="2.0625" stroke-miterlimit="10" stroke-linecap="round" stroke-linejoin="round"/>
<path d="M163.307 171.369H197.885" stroke="#D1D9F6" stroke-width="2.0625" stroke-miterlimit="10" stroke-linecap="round" stroke-linejoin="round"/>
<path d="M40.7415 35.6794C40.7415 35.6794 36.8217 37.5738 35.4567 31.1541C34.0918 24.7344 32.3768 16.1398 32.6218 10.7024C32.8668 5.30004 51.0661 24.4538 40.7415 35.6794Z" fill="#26120C"/>
<path d="M37.8017 32.9783C37.8017 32.9783 33.0769 24.3486 32.6569 14.4209C32.2369 4.49323 37.7667 2.31826 42.8765 0.879976C47.9863 -0.558309 60.6908 -0.558307 65.4856 3.37067C70.2804 7.26456 73.0802 15.2979 71.1203 25.0502C69.1604 34.8025 37.8017 32.9783 37.8017 32.9783Z" fill="#26120C"/>
<path d="M85.5747 102.718L86.2397 85.6688L66.7805 84.4059L68.5304 112.365L85.5747 102.718Z" fill="#F4B6AC"/>
<path d="M64.1556 59.3586C64.1556 59.3586 88.6546 64.6207 88.6546 84.1954L88.2696 98.5782C88.2696 98.5782 81.5849 99.5955 71.6453 97.3153L64.1556 59.3586Z" fill="#4264DE"/>
<path d="M96.6343 253.983C84.0698 251.142 72.2402 246.371 61.4607 240.021C61.2507 225.182 61.0757 214.728 59.3608 210.624C58.8008 209.291 57.1558 205.187 54.9509 199.539L54.7409 199.012C53.936 196.943 53.061 194.662 52.116 192.277C52.0111 191.961 51.8711 191.681 51.7661 191.365L51.6961 191.19C46.9013 178.666 41.0565 162.81 37.6616 151.514C36.3667 147.234 35.4217 143.621 35.0367 141.095L44.2064 141.656L73.8852 143.446C73.8852 143.446 74.5151 144.989 75.5651 147.655C79.3799 157.407 88.7246 182.174 93.3094 201.608C95.7593 211.782 96.5293 232.97 96.6343 253.983Z" fill="#4B70F2"/>
<path d="M51.7661 191.19L54.9859 199.539C54.9859 199.539 56.1409 190.979 54.7409 185.191C53.341 179.403 55.0909 170.282 53.061 161.828L51.7661 191.19Z" fill="#4967D2"/>
<path d="M53.201 150.707C53.201 154.496 53.201 158.32 53.131 162.178C52.991 172.141 52.641 182.244 52.151 192.277C51.451 205.853 50.5061 219.254 49.4211 231.953C35.5267 221.429 23.9422 208.028 15.4725 192.628C14.4925 183.402 13.7226 170.703 14.5975 151.023C14.7725 146.813 15.0525 142.288 15.3675 137.412L44.2064 141.657L53.061 142.955C53.166 145.515 53.201 148.111 53.201 150.707Z" fill="#4B70F2"/>
<path d="M63.5606 109.874C62.1607 115.206 65.1355 120.503 70.2453 122.503C89.5646 130.15 130.058 142.709 130.058 142.709L136.253 132.676C128.098 128.993 97.9992 113.136 85.5747 108.015L63.5606 109.874Z" fill="#F4B6AC"/>
<path d="M132.683 131.027C132.683 131.027 140.208 131.203 144.302 130.782C145.667 130.641 148.432 130.15 148.607 132.01C148.782 133.869 145.457 134.605 140.837 135.307C140.837 135.307 142.622 138.534 146.892 140.569C151.127 142.604 158.582 142.884 159.037 145.55C159.317 147.234 143.742 146.112 135.413 144.007C132.648 143.305 130.093 142.674 130.093 142.674L132.683 131.027Z" fill="#F4B6AC"/>
<path d="M76.825 147.445C76.825 147.445 75.0751 127.624 77.805 98.543C78.8549 87.2121 81.6898 69.9527 74.7601 64.4451C66.5004 57.8852 55.0209 57.8852 49.9111 57.6045C44.8013 57.3239 22.5772 52.0618 17.1524 67.9181C11.7276 83.7743 14.6325 124.888 12.3576 150.847C12.3576 150.847 43.8213 154.005 76.825 147.445Z" fill="#4264DE"/>
<path d="M67.8304 32.3819C67.8304 32.3819 72.3102 32.417 74.1651 28.4179C75.7751 24.9099 73.3952 19.4023 67.5854 23.3312L67.8304 32.3819ZM40.5665 56.6574C40.5665 56.6574 39.4815 66.0939 54.7409 66.8657C64.3305 67.3568 58.5208 58.4465 58.5208 58.4465L59.3607 33.715L42.2464 33.0835L42.0014 35.9601L41.6165 40.4153L40.5665 56.6574Z" fill="#F4B6AC"/>
<path d="M41.5815 43.1867C42.4565 54.3071 58.6958 53.5002 58.6958 53.5002L58.8358 49.5011C57.0859 49.1152 55.6859 47.8874 55.6859 47.8874C55.6859 47.8874 44.2414 39.1875 44.0664 39.2928C43.9964 39.3279 43.0164 38.9069 41.9665 38.6964C41.9665 38.7315 41.4765 42.0641 41.5815 43.1867Z" fill="#26120C"/>
<path d="M38.4316 34.7673C38.4316 34.7673 33.9518 35.048 31.8869 31.1541C30.1019 27.7513 32.1318 22.1034 38.1866 25.6816L38.4316 34.7673Z" fill="#F4B6AC"/>
<path d="M37.8716 35.6795C37.8716 35.6795 37.3466 51.9917 53.516 51.5357C68.6354 51.1147 74.4801 32.6275 69.3703 14.456L37.3116 15.3681L37.8716 35.6795Z" fill="#F4B6AC"/>
<path d="M56.8059 42.7306C56.8059 42.7306 54.146 43.4322 52.711 42.6254" stroke="#26120C" stroke-width="0.986906" stroke-miterlimit="10" stroke-linecap="round" stroke-linejoin="round"/>
<path d="M49.5942 28.8377C50.2511 28.8191 50.7686 28.2702 50.75 27.6117C50.7314 26.9532 50.1838 26.4346 49.5269 26.4532C48.8699 26.4718 48.3524 27.0207 48.371 27.6792C48.3896 28.3376 48.9372 28.8563 49.5942 28.8377Z" fill="#26120C"/>
<path d="M64.2938 28.8733C64.9507 28.8547 65.4682 28.3058 65.4496 27.6473C65.431 26.9889 64.8834 26.4702 64.2264 26.4888C63.5695 26.5075 63.052 27.0564 63.0706 27.7148C63.0892 28.3733 63.6368 28.892 64.2938 28.8733Z" fill="#26120C"/>
<path d="M54.7409 37.7843C55.0209 37.9947 55.4059 38.1 55.8259 38.0649L54.8459 33.4694C54.391 35.0129 53.936 37.1528 54.7409 37.7843ZM51.1011 24.0328C51.1011 24.0328 47.9862 23.8925 47.1813 23.8224C46.2363 23.7171 45.5013 23.1208 47.1113 22.77C48.9312 22.3841 51.3811 22.4192 52.291 23.0155C53.166 23.5768 52.711 24.2082 51.1011 24.0328ZM62.6506 23.4014C62.6506 23.4014 65.7655 23.2962 66.5705 23.2611C67.1654 23.226 68.4254 22.6998 66.6405 22.2087C64.8555 21.7176 62.4756 21.928 61.4607 22.3139C60.5157 22.7349 60.7957 23.4365 62.6506 23.4014ZM89.2495 83.9497L73.0802 85.2827C72.2752 85.3529 71.6803 86.0194 71.6803 86.8263L72.3802 118.293C72.4152 119.17 73.1502 119.837 74.0252 119.766L90.1945 118.433C90.9995 118.363 91.5945 117.697 91.5945 116.89L90.8945 85.4231C90.8595 84.5461 90.0895 83.8795 89.2495 83.9497Z" fill="#26120C"/>
<path d="M31.957 112.154L31.012 90.6851L24.1873 99.5955L22.7523 116.785L31.957 112.154Z" fill="#2C4DC3"/>
<path d="M62.7906 103.63C62.7906 103.63 68.6003 100.052 71.9252 97.4907L72.0302 102.788C72.0302 102.788 77.77 110.155 71.4002 112.926C66.8854 114.89 66.8854 114.89 66.8854 114.89L62.7906 103.63Z" fill="#F4B6AC"/>
<path d="M71.0853 103.244C71.0853 103.244 80.4649 99.5253 83.7198 97.5959C86.9746 95.6665 89.1796 97.9467 85.1547 100.613C81.1299 103.279 71.1903 107.313 71.1903 107.313L71.0853 103.244ZM72.1352 108.962C72.1352 108.962 81.8298 106.155 85.2597 104.577C88.6896 102.963 90.6495 105.454 86.4147 107.734C82.1798 110.014 66.9204 114.89 66.9204 114.89L72.1352 108.962Z" fill="#F4B6AC"/>
<path d="M69.4754 111.453C69.4754 111.453 79.415 109.628 82.9848 108.33C86.5547 107.067 88.2696 109.734 83.8248 111.593C79.38 113.452 67.2704 115.873 67.2704 115.873L69.4754 111.453Z" fill="#F4B6AC"/>
<path d="M71.4003 106.226C71.4003 106.226 82.8448 102.262 86.0997 100.332C89.3545 98.4028 91.5595 100.683 87.5346 103.349C83.5098 106.015 71.7153 111.277 71.7153 111.277L71.4003 106.226Z" fill="#F4B6AC"/>
<path d="M62.7906 103.63C62.7906 103.63 44.2764 110.576 14.8776 115.452C3.11804 117.416 5.32295 140.709 20.5123 135.026C38.0466 128.431 67.2355 115.908 67.2355 115.908L72.1353 108.997L62.7906 103.63Z" fill="#F4B6AC"/>
<path d="M40.7065 54.342C40.7065 54.342 41.3365 65.0415 54.7409 66.8657C54.7409 66.8657 49.9811 68.8301 49.7361 74.8639C49.7361 74.8639 32.2018 65.2169 40.7065 54.342ZM54.7409 66.8657C54.7409 66.8657 58.6608 63.1472 58.5908 55.8154C58.5908 55.8154 65.5905 59.1831 60.2357 72.7942C60.2707 72.7591 59.4307 67.9181 54.7409 66.8657Z" fill="white"/>
<path d="M8.08788 129.905C8.08788 129.905 4.51802 120.608 7.4579 98.6483H25.8322L25.3072 116.715L8.08788 129.905Z" fill="#F4B6AC"/>
<path d="M27.4071 57.9553C27.4071 57.9553 8.08782 62.5157 5.35793 87.9488L3.888 104.822C3.888 104.822 16.4175 106.892 29.787 105.454L31.9569 79.0736L27.4071 57.9553Z" fill="#4264DE"/>
<path d="M38.1516 25.7167L38.3966 29.2949C38.3966 29.2949 38.4316 30.5929 39.4465 30.5578C40.4965 30.5227 40.2165 28.6284 40.1815 27.7163C40.1465 26.8042 40.0065 24.9801 40.0065 24.9801C40.0065 24.9801 41.0915 22.6648 41.5465 17.508C41.5465 17.508 54.391 17.964 59.9557 17.508C65.5555 17.0519 57.6458 15.754 57.6458 15.754C57.6458 15.754 65.3455 16.0697 71.9602 14.4911C78.54 12.9125 78.645 7.19443 74.6201 3.47594C69.9653 -0.768756 65.4505 3.40578 65.4505 3.40578C65.4505 3.40578 44.7663 2.28322 38.1516 3.86182C31.5719 5.44043 34.4067 24.068 38.1516 25.7167Z" fill="#26120C"/>
<path d="M219.024 154.671C224.494 154.671 228.929 150.226 228.929 144.744C228.929 139.261 224.494 134.816 219.024 134.816C213.554 134.816 209.12 139.261 209.12 144.744C209.12 150.226 213.554 154.671 219.024 154.671Z" fill="#4A72FF"/>
<path d="M215.49 144.744L218.709 146.778L222.734 141.692" fill="#4A72FF"/>
<path d="M215.49 144.744L218.709 146.778L222.734 141.692" stroke="white" stroke-width="2.0625" stroke-miterlimit="10" stroke-linecap="round" stroke-linejoin="round"/>
<path d="M219.024 87.9489C224.494 87.9489 228.929 83.5041 228.929 78.0212C228.929 72.5383 224.494 68.0936 219.024 68.0936C213.554 68.0936 209.12 72.5383 209.12 78.0212C209.12 83.5041 213.554 87.9489 219.024 87.9489Z" fill="#4A72FF"/>
<path d="M215.49 78.0213L218.709 80.0559L222.734 74.9693" fill="#4A72FF"/>
<path d="M215.49 78.0213L218.709 80.0559L222.734 74.9693" stroke="white" stroke-width="2.0625" stroke-miterlimit="10" stroke-linecap="round" stroke-linejoin="round"/>
<path d="M219.024 20.9108C224.494 20.9108 228.929 16.466 228.929 10.9831C228.929 5.50019 224.494 1.05542 219.024 1.05542C213.554 1.05542 209.12 5.50019 209.12 10.9831C209.12 16.466 213.554 20.9108 219.024 20.9108Z" fill="#4A72FF"/>
<path d="M215.49 10.9831L218.709 13.0178L222.734 7.93115" fill="#4A72FF"/>
<path d="M215.49 10.9831L218.709 13.0178L222.734 7.93115" stroke="white" stroke-width="2.0625" stroke-miterlimit="10" stroke-linecap="round" stroke-linejoin="round"/>
<path d="M187.911 230.76C190.017 230.76 191.725 229.048 191.725 226.936C191.725 224.825 190.017 223.113 187.911 223.113C185.804 223.113 184.096 224.825 184.096 226.936C184.096 229.048 185.804 230.76 187.911 230.76Z" fill="#454C64"/>
</svg>
