<svg width="22" height="24" viewBox="0 0 22 24" fill="none" xmlns="http://www.w3.org/2000/svg">
<path fill-rule="evenodd" clip-rule="evenodd" d="M10.9999 0C7.70209 0 5.02863 2.37394 5.02863 5.30233C5.02863 8.23072 7.70209 10.6047 10.9999 10.6047C14.2979 10.6047 16.9713 8.23072 16.9713 5.30233C16.9713 2.37394 14.2979 0 10.9999 0ZM6.91431 5.30233C6.91431 3.29868 8.74351 1.67442 10.9999 1.67442C13.2565 1.67442 15.0856 3.29868 15.0856 5.30233C15.0856 7.30597 13.2565 8.93023 10.9999 8.93023C8.74351 8.93023 6.91431 7.30597 6.91431 5.30233Z" fill="#AAAAAA"/>
<path fill-rule="evenodd" clip-rule="evenodd" d="M11 12.2793C8.09158 12.2793 5.41199 12.8663 3.42639 13.8581C1.47035 14.8351 0.000160594 16.3159 0.000160594 18.1398L8.5364e-05 18.2536C-0.00133519 19.5505 -0.00312055 21.1783 1.60478 22.3409C2.3961 22.9131 3.50311 23.32 4.99875 23.5889C6.49857 23.8583 8.45335 24.0002 11 24.0002C13.5466 24.0002 15.5015 23.8583 17.0012 23.5889C18.4969 23.32 19.604 22.9131 20.3952 22.3409C22.0031 21.1783 22.0013 19.5505 21.9999 18.2536L21.9998 18.1398C21.9998 16.3159 20.5297 14.8351 18.5736 13.8581C16.588 12.8663 13.9084 12.2793 11 12.2793ZM1.88585 18.1398C1.88585 17.1895 2.667 16.1585 4.35088 15.3175C6.00519 14.4912 8.3541 13.9537 11 13.9537C13.646 13.9537 15.9948 14.4912 17.6491 15.3175C19.3331 16.1585 20.1141 17.1895 20.1141 18.1398C20.1141 19.5996 20.0634 20.4214 19.2045 21.0425C18.7387 21.3794 17.96 21.7082 16.6271 21.9477C15.2984 22.1865 13.4819 22.3258 11 22.3258C8.51814 22.3258 6.70156 22.1865 5.37286 21.9477C4.03997 21.7082 3.26129 21.3794 2.79549 21.0425C1.93653 20.4214 1.88585 19.5996 1.88585 18.1398Z" fill="#AAAAAA"/>
</svg>
