<svg width="132" height="34" viewBox="0 0 132 34" fill="none" xmlns="http://www.w3.org/2000/svg">
<rect width="132" height="34" rx="6" fill="#4A72FF"/>
<g clip-path="url(#clip0_349_2539)">
<path d="M23.887 11.8193C23.9423 11.905 23.9882 12.0265 24.0145 12.2832C24.0421 12.5531 24.0429 12.9056 24.0429 13.4379V15.3919C24.0429 16.4335 24.052 17.1899 24.1458 17.7691C24.2464 18.3906 24.4483 18.8389 24.8263 19.2606L24.8635 19.2272L24.8263 19.2606C25.24 19.722 25.7636 19.9211 26.3786 20.0133C26.9648 20.1013 27.7076 20.1013 28.6179 20.1013H28.6218H32.2911H32.2941C32.7951 20.1013 33.2213 20.1013 33.5673 20.0565C33.9364 20.0088 34.2787 19.9035 34.5783 19.6453L34.5783 19.6453C34.8776 19.3873 35.0436 19.0548 35.162 18.6831L35.162 18.6831C35.2733 18.3338 35.3593 17.8922 35.4606 17.3723L35.4608 17.3711L35.8062 15.5987L35.8063 15.5982L35.8069 15.5954L35.807 15.5946L35.8141 15.5571L35.8141 15.5571L35.8145 15.555C35.9259 14.9649 36.0205 14.4638 36.0441 14.0597L36.0441 14.0597C36.0689 13.634 36.0238 13.2052 35.7547 12.8352L35.7547 12.8351C35.5872 12.6049 35.3529 12.4761 35.144 12.3985C34.9307 12.3192 34.691 12.2739 34.4517 12.2456L34.4459 12.2952L34.4517 12.2456C33.9824 12.1901 33.4135 12.1901 32.8594 12.1901H32.8573H25.1295C25.1284 12.1791 25.1274 12.1681 25.1262 12.1572L25.1262 12.1572C25.0894 11.7967 25.0089 11.4629 24.8116 11.1575C24.6125 10.8493 24.3481 10.653 24.0442 10.4952C23.7617 10.3486 23.4038 10.2156 22.9874 10.0608L22.9849 10.0598L22.9849 10.0598L22.7803 9.98376C22.7803 9.98376 22.7803 9.98376 22.7803 9.98376C22.4866 9.87451 22.1678 10.0389 22.0663 10.3442C21.9652 10.6485 22.1155 10.9847 22.4078 11.0934L22.4078 11.0934L22.5851 11.1594C23.0394 11.3283 23.3338 11.4388 23.5496 11.5508C23.7506 11.6551 23.8334 11.7364 23.887 11.8193ZM23.887 11.8193L23.929 11.7922M23.887 11.8193L23.929 11.7922M23.929 11.7922C23.8692 11.6997 23.7785 11.6132 23.5726 11.5064C23.3535 11.3927 23.0557 11.281 22.6025 11.1125L23.929 11.7922ZM25.161 15.3919V13.367H32.8361C33.4184 13.367 33.9267 13.3678 34.3268 13.4151C34.5256 13.4386 34.6713 13.471 34.7716 13.5082C34.8122 13.5233 34.8383 13.5367 34.854 13.546C34.8626 13.551 34.8681 13.555 34.8714 13.5574C34.9031 13.6043 34.9447 13.7005 34.928 13.9875C34.9096 14.302 34.8313 14.7234 34.7105 15.3637L34.7104 15.3646L34.7102 15.3656L34.3717 17.1025C34.2619 17.6658 34.1888 18.036 34.1019 18.3088L34.1495 18.324L34.1019 18.3088C34.0198 18.5666 33.9451 18.6699 33.8698 18.7348C33.7948 18.7993 33.685 18.8555 33.4308 18.8884L33.4308 18.8884C33.161 18.9233 32.8041 18.9244 32.2602 18.9244H28.6607C27.6974 18.9244 27.0345 18.9229 26.5363 18.8482C26.0578 18.7764 25.8141 18.6476 25.6396 18.4529L25.6396 18.4529C25.4295 18.2185 25.3159 17.9903 25.2481 17.5714C25.1734 17.1101 25.161 16.4621 25.161 15.3919ZM34.8752 13.5605L34.8943 13.5418L34.878 13.5629L34.8773 13.5624L34.8758 13.5611L34.8752 13.5605ZM34.9341 13.5665C34.9662 13.6334 34.9919 13.7498 34.9779 13.9904C34.9593 14.3089 34.8802 14.7341 34.7597 15.373L34.7594 15.3746L34.9341 13.5665Z" fill="white" stroke="white" stroke-width="0.1"/>
<path d="M24.7501 22.3846C24.7501 23.3017 25.4537 24.05 26.3274 24.05C27.2011 24.05 27.9046 23.3017 27.9046 22.3846C27.9046 21.4675 27.2011 20.7193 26.3274 20.7193C25.4537 20.7193 24.7501 21.4675 24.7501 22.3846ZM26.3274 22.8731C26.0764 22.8731 25.8683 22.6571 25.8683 22.3846C25.8683 22.1122 26.0764 21.8962 26.3274 21.8962C26.5783 21.8962 26.7865 22.1122 26.7865 22.3846C26.7865 22.6571 26.5783 22.8731 26.3274 22.8731Z" fill="white" stroke="white" stroke-width="0.1"/>
<path d="M30.8591 22.3846C30.8591 23.3017 31.5627 24.05 32.4364 24.05C33.3101 24.05 34.0136 23.3017 34.0136 22.3846C34.0136 21.4675 33.31 20.7193 32.4364 20.7193C31.5627 20.7193 30.8591 21.4675 30.8591 22.3846ZM32.4364 22.8731C32.1854 22.8731 31.9773 22.6571 31.9773 22.3846C31.9773 22.1122 32.1854 21.8962 32.4364 21.8962C32.6873 21.8962 32.8955 22.1122 32.8955 22.3846C32.8955 22.6571 32.6873 22.8731 32.4364 22.8731Z" fill="white" stroke="white" stroke-width="0.1"/>
</g>
<path d="M48.0968 19.404H44.7608L44.2088 21H42.4448L45.4568 12.612H47.4128L50.4248 21H48.6488L48.0968 19.404ZM47.6408 18.06L46.4288 14.556L45.2168 18.06H47.6408ZM51.1187 17.652C51.1187 16.98 51.2507 16.384 51.5147 15.864C51.7867 15.344 52.1547 14.944 52.6187 14.664C53.0827 14.384 53.5987 14.244 54.1667 14.244C54.5987 14.244 55.0107 14.34 55.4027 14.532C55.7947 14.716 56.1067 14.964 56.3387 15.276V12.12H58.0427V21H56.3387V20.016C56.1307 20.344 55.8387 20.608 55.4627 20.808C55.0867 21.008 54.6507 21.108 54.1547 21.108C53.5947 21.108 53.0827 20.964 52.6187 20.676C52.1547 20.388 51.7867 19.984 51.5147 19.464C51.2507 18.936 51.1187 18.332 51.1187 17.652ZM56.3507 17.676C56.3507 17.268 56.2707 16.92 56.1107 16.632C55.9507 16.336 55.7347 16.112 55.4627 15.96C55.1907 15.8 54.8987 15.72 54.5867 15.72C54.2747 15.72 53.9867 15.796 53.7227 15.948C53.4587 16.1 53.2427 16.324 53.0747 16.62C52.9147 16.908 52.8347 17.252 52.8347 17.652C52.8347 18.052 52.9147 18.404 53.0747 18.708C53.2427 19.004 53.4587 19.232 53.7227 19.392C53.9947 19.552 54.2827 19.632 54.5867 19.632C54.8987 19.632 55.1907 19.556 55.4627 19.404C55.7347 19.244 55.9507 19.02 56.1107 18.732C56.2707 18.436 56.3507 18.084 56.3507 17.676ZM59.2515 17.652C59.2515 16.98 59.3835 16.384 59.6475 15.864C59.9195 15.344 60.2875 14.944 60.7515 14.664C61.2155 14.384 61.7315 14.244 62.2995 14.244C62.7315 14.244 63.1435 14.34 63.5355 14.532C63.9275 14.716 64.2395 14.964 64.4715 15.276V12.12H66.1755V21H64.4715V20.016C64.2635 20.344 63.9715 20.608 63.5955 20.808C63.2195 21.008 62.7835 21.108 62.2875 21.108C61.7275 21.108 61.2155 20.964 60.7515 20.676C60.2875 20.388 59.9195 19.984 59.6475 19.464C59.3835 18.936 59.2515 18.332 59.2515 17.652ZM64.4835 17.676C64.4835 17.268 64.4035 16.92 64.2435 16.632C64.0835 16.336 63.8675 16.112 63.5955 15.96C63.3235 15.8 63.0315 15.72 62.7195 15.72C62.4075 15.72 62.1195 15.796 61.8555 15.948C61.5915 16.1 61.3755 16.324 61.2075 16.62C61.0475 16.908 60.9675 17.252 60.9675 17.652C60.9675 18.052 61.0475 18.404 61.2075 18.708C61.3755 19.004 61.5915 19.232 61.8555 19.392C62.1275 19.552 62.4155 19.632 62.7195 19.632C63.0315 19.632 63.3235 19.556 63.5955 19.404C63.8675 19.244 64.0835 19.02 64.2435 18.732C64.4035 18.436 64.4835 18.084 64.4835 17.676ZM72.6317 15.732V18.948C72.6317 19.172 72.6837 19.336 72.7877 19.44C72.8997 19.536 73.0837 19.584 73.3397 19.584H74.1197V21H73.0637C71.6477 21 70.9397 20.312 70.9397 18.936V15.732H70.1477V14.352H70.9397V12.708H72.6317V14.352H74.1197V15.732H72.6317ZM78.28 21.108C77.64 21.108 77.064 20.968 76.552 20.688C76.04 20.4 75.636 19.996 75.34 19.476C75.052 18.956 74.908 18.356 74.908 17.676C74.908 16.996 75.056 16.396 75.352 15.876C75.656 15.356 76.068 14.956 76.588 14.676C77.108 14.388 77.688 14.244 78.328 14.244C78.968 14.244 79.548 14.388 80.068 14.676C80.588 14.956 80.996 15.356 81.292 15.876C81.596 16.396 81.748 16.996 81.748 17.676C81.748 18.356 81.592 18.956 81.28 19.476C80.976 19.996 80.56 20.4 80.032 20.688C79.512 20.968 78.928 21.108 78.28 21.108ZM78.28 19.644C78.584 19.644 78.868 19.572 79.132 19.428C79.404 19.276 79.62 19.052 79.78 18.756C79.94 18.46 80.02 18.1 80.02 17.676C80.02 17.044 79.852 16.56 79.516 16.224C79.188 15.88 78.784 15.708 78.304 15.708C77.824 15.708 77.42 15.88 77.092 16.224C76.772 16.56 76.612 17.044 76.612 17.676C76.612 18.308 76.768 18.796 77.08 19.14C77.4 19.476 77.8 19.644 78.28 19.644ZM85.4077 17.676C85.4077 16.988 85.5477 16.388 85.8277 15.876C86.1077 15.356 86.4957 14.956 86.9917 14.676C87.4877 14.388 88.0557 14.244 88.6957 14.244C89.5197 14.244 90.1997 14.452 90.7357 14.868C91.2797 15.276 91.6437 15.852 91.8277 16.596H90.0157C89.9197 16.308 89.7557 16.084 89.5237 15.924C89.2997 15.756 89.0197 15.672 88.6837 15.672C88.2037 15.672 87.8237 15.848 87.5437 16.2C87.2637 16.544 87.1237 17.036 87.1237 17.676C87.1237 18.308 87.2637 18.8 87.5437 19.152C87.8237 19.496 88.2037 19.668 88.6837 19.668C89.3637 19.668 89.8077 19.364 90.0157 18.756H91.8277C91.6437 19.476 91.2797 20.048 90.7357 20.472C90.1917 20.896 89.5117 21.108 88.6957 21.108C88.0557 21.108 87.4877 20.968 86.9917 20.688C86.4957 20.4 86.1077 20 85.8277 19.488C85.5477 18.968 85.4077 18.364 85.4077 17.676ZM92.6265 17.652C92.6265 16.98 92.7585 16.384 93.0225 15.864C93.2945 15.344 93.6585 14.944 94.1145 14.664C94.5785 14.384 95.0945 14.244 95.6625 14.244C96.1585 14.244 96.5905 14.344 96.9585 14.544C97.3345 14.744 97.6345 14.996 97.8585 15.3V14.352H99.5505V21H97.8585V20.028C97.6425 20.34 97.3425 20.6 96.9585 20.808C96.5825 21.008 96.1465 21.108 95.6505 21.108C95.0905 21.108 94.5785 20.964 94.1145 20.676C93.6585 20.388 93.2945 19.984 93.0225 19.464C92.7585 18.936 92.6265 18.332 92.6265 17.652ZM97.8585 17.676C97.8585 17.268 97.7785 16.92 97.6185 16.632C97.4585 16.336 97.2425 16.112 96.9705 15.96C96.6985 15.8 96.4065 15.72 96.0945 15.72C95.7825 15.72 95.4945 15.796 95.2305 15.948C94.9665 16.1 94.7505 16.324 94.5825 16.62C94.4225 16.908 94.3425 17.252 94.3425 17.652C94.3425 18.052 94.4225 18.404 94.5825 18.708C94.7505 19.004 94.9665 19.232 95.2305 19.392C95.5025 19.552 95.7905 19.632 96.0945 19.632C96.4065 19.632 96.6985 19.556 96.9705 19.404C97.2425 19.244 97.4585 19.02 97.6185 18.732C97.7785 18.436 97.8585 18.084 97.8585 17.676ZM102.871 15.384C103.087 15.032 103.367 14.756 103.711 14.556C104.063 14.356 104.463 14.256 104.911 14.256V16.02H104.467C103.939 16.02 103.539 16.144 103.267 16.392C103.003 16.64 102.871 17.072 102.871 17.688V21H101.191V14.352H102.871V15.384ZM107.999 15.732V18.948C107.999 19.172 108.051 19.336 108.155 19.44C108.267 19.536 108.451 19.584 108.707 19.584H109.487V21H108.431C107.015 21 106.307 20.312 106.307 18.936V15.732H105.515V14.352H106.307V12.708H107.999V14.352H109.487V15.732H107.999Z" fill="white"/>
<defs>
<clipPath id="clip0_349_2539">
<rect width="14" height="14" fill="white" transform="translate(22 10)"/>
</clipPath>
</defs>
</svg>
