<svg width="42" height="13" viewBox="0 0 42 13" fill="none" xmlns="http://www.w3.org/2000/svg">
<path d="M1.506 0.659999V5.976C1.506 6.608 1.67 7.084 1.998 7.404C2.334 7.724 2.798 7.884 3.39 7.884C3.99 7.884 4.454 7.724 4.782 7.404C5.118 7.084 5.286 6.608 5.286 5.976V0.659999H6.654V5.952C6.654 6.632 6.506 7.208 6.21 7.68C5.914 8.152 5.518 8.504 5.022 8.736C4.526 8.968 3.978 9.084 3.378 9.084C2.778 9.084 2.23 8.968 1.734 8.736C1.246 8.504 0.858 8.152 0.57 7.68C0.282 7.208 0.138 6.632 0.138 5.952V0.659999H1.506ZM9.80316 3.36C10.0352 3.056 10.3512 2.8 10.7512 2.592C11.1512 2.384 11.6032 2.28 12.1072 2.28C12.6832 2.28 13.2072 2.424 13.6792 2.712C14.1592 2.992 14.5352 3.388 14.8072 3.9C15.0792 4.412 15.2152 5 15.2152 5.664C15.2152 6.328 15.0792 6.924 14.8072 7.452C14.5352 7.972 14.1592 8.38 13.6792 8.676C13.2072 8.964 12.6832 9.108 12.1072 9.108C11.6032 9.108 11.1552 9.008 10.7632 8.808C10.3712 8.6 10.0512 8.344 9.80316 8.04V12.144H8.43516V2.388H9.80316V3.36ZM13.8232 5.664C13.8232 5.208 13.7272 4.816 13.5352 4.488C13.3512 4.152 13.1032 3.9 12.7912 3.732C12.4872 3.556 12.1592 3.468 11.8072 3.468C11.4632 3.468 11.1352 3.556 10.8232 3.732C10.5192 3.908 10.2712 4.164 10.0792 4.5C9.89516 4.836 9.80316 5.232 9.80316 5.688C9.80316 6.144 9.89516 6.544 10.0792 6.888C10.2712 7.224 10.5192 7.48 10.8232 7.656C11.1352 7.832 11.4632 7.92 11.8072 7.92C12.1592 7.92 12.4872 7.832 12.7912 7.656C13.1032 7.472 13.3512 7.208 13.5352 6.864C13.7272 6.52 13.8232 6.12 13.8232 5.664ZM17.936 0.12V9H16.568V0.12H17.936ZM22.6 9.108C21.976 9.108 21.412 8.968 20.908 8.688C20.404 8.4 20.008 8 19.72 7.488C19.432 6.968 19.288 6.368 19.288 5.688C19.288 5.016 19.436 4.42 19.732 3.9C20.028 3.38 20.432 2.98 20.944 2.7C21.456 2.42 22.028 2.28 22.66 2.28C23.292 2.28 23.864 2.42 24.376 2.7C24.888 2.98 25.292 3.38 25.588 3.9C25.884 4.42 26.032 5.016 26.032 5.688C26.032 6.36 25.88 6.956 25.576 7.476C25.272 7.996 24.856 8.4 24.328 8.688C23.808 8.968 23.232 9.108 22.6 9.108ZM22.6 7.92C22.952 7.92 23.28 7.836 23.584 7.668C23.896 7.5 24.148 7.248 24.34 6.912C24.532 6.576 24.628 6.168 24.628 5.688C24.628 5.208 24.536 4.804 24.352 4.476C24.168 4.14 23.924 3.888 23.62 3.72C23.316 3.552 22.988 3.468 22.636 3.468C22.284 3.468 21.956 3.552 21.652 3.72C21.356 3.888 21.12 4.14 20.944 4.476C20.768 4.804 20.68 5.208 20.68 5.688C20.68 6.4 20.86 6.952 21.22 7.344C21.588 7.728 22.048 7.92 22.6 7.92ZM26.9284 5.664C26.9284 5 27.0644 4.412 27.3364 3.9C27.6164 3.388 27.9924 2.992 28.4644 2.712C28.9444 2.424 29.4724 2.28 30.0484 2.28C30.5684 2.28 31.0204 2.384 31.4044 2.592C31.7964 2.792 32.1084 3.044 32.3404 3.348V2.388H33.7204V9H32.3404V8.016C32.1084 8.328 31.7924 8.588 31.3924 8.796C30.9924 9.004 30.5364 9.108 30.0244 9.108C29.4564 9.108 28.9364 8.964 28.4644 8.676C27.9924 8.38 27.6164 7.972 27.3364 7.452C27.0644 6.924 26.9284 6.328 26.9284 5.664ZM32.3404 5.688C32.3404 5.232 32.2444 4.836 32.0524 4.5C31.8684 4.164 31.6244 3.908 31.3204 3.732C31.0164 3.556 30.6884 3.468 30.3364 3.468C29.9844 3.468 29.6564 3.556 29.3524 3.732C29.0484 3.9 28.8004 4.152 28.6084 4.488C28.4244 4.816 28.3324 5.208 28.3324 5.664C28.3324 6.12 28.4244 6.52 28.6084 6.864C28.8004 7.208 29.0484 7.472 29.3524 7.656C29.6644 7.832 29.9924 7.92 30.3364 7.92C30.6884 7.92 31.0164 7.832 31.3204 7.656C31.6244 7.48 31.8684 7.224 32.0524 6.888C32.2444 6.544 32.3404 6.144 32.3404 5.688ZM35.0612 5.664C35.0612 5 35.1972 4.412 35.4692 3.9C35.7492 3.388 36.1252 2.992 36.5972 2.712C37.0772 2.424 37.6092 2.28 38.1932 2.28C38.6252 2.28 39.0492 2.376 39.4652 2.568C39.8892 2.752 40.2252 3 40.4732 3.312V0.12H41.8532V9H40.4732V8.004C40.2492 8.324 39.9372 8.588 39.5372 8.796C39.1452 9.004 38.6932 9.108 38.1812 9.108C37.6052 9.108 37.0772 8.964 36.5972 8.676C36.1252 8.38 35.7492 7.972 35.4692 7.452C35.1972 6.924 35.0612 6.328 35.0612 5.664ZM40.4732 5.688C40.4732 5.232 40.3772 4.836 40.1852 4.5C40.0012 4.164 39.7572 3.908 39.4532 3.732C39.1492 3.556 38.8212 3.468 38.4692 3.468C38.1172 3.468 37.7892 3.556 37.4852 3.732C37.1812 3.9 36.9332 4.152 36.7412 4.488C36.5572 4.816 36.4652 5.208 36.4652 5.664C36.4652 6.12 36.5572 6.52 36.7412 6.864C36.9332 7.208 37.1812 7.472 37.4852 7.656C37.7972 7.832 38.1252 7.92 38.4692 7.92C38.8212 7.92 39.1492 7.832 39.4532 7.656C39.7572 7.48 40.0012 7.224 40.1852 6.888C40.3772 6.544 40.4732 6.144 40.4732 5.688Z" fill="white"/>
</svg>
