<svg width="24" height="24" viewBox="0 0 24 24" fill="none" xmlns="http://www.w3.org/2000/svg">
<path fill-rule="evenodd" clip-rule="evenodd" d="M1.16951 0.0525059C0.712034 -0.116587 0.21079 0.136222 0.0499448 0.617149C-0.1109 1.09809 0.129577 1.62503 0.58706 1.79413L0.892864 1.90715C1.67444 2.19603 2.1881 2.38747 2.56606 2.58244C2.92106 2.76555 3.07755 2.91377 3.18064 3.07236C3.28631 3.23493 3.36791 3.45821 3.41395 3.9054C3.46213 4.37335 3.46332 4.98283 3.46332 5.89352V9.24318C3.46332 11.0309 3.47928 12.3199 3.63974 13.3048C3.81104 14.3562 4.15304 15.1089 4.79253 15.8181C5.48778 16.5889 6.3691 16.9245 7.41834 17.081C8.42309 17.2308 9.699 17.2308 11.2745 17.2308H17.6031C18.4714 17.2308 19.2019 17.2308 19.7931 17.1547C20.4203 17.0741 20.9923 16.8976 21.4916 16.4699C21.9909 16.0421 22.2707 15.4888 22.4726 14.8593C22.6627 14.2659 22.8102 13.5138 22.9855 12.6198L23.5812 9.58054L23.5824 9.57488L23.5946 9.51058C23.7874 8.49535 23.9496 7.64135 23.9899 6.95445C24.0322 6.23299 23.9541 5.5216 23.5071 4.91067C23.232 4.53477 22.8453 4.32196 22.4935 4.19202C22.1347 4.05948 21.7289 3.98281 21.3195 3.93468C20.5151 3.84016 19.538 3.84017 18.5797 3.84019H5.17235C5.1685 3.79496 5.16433 3.75047 5.15984 3.70674C5.09693 3.09582 4.96064 2.53863 4.63052 2.03078C4.29782 1.51896 3.85547 1.19116 3.33961 0.925071C2.85717 0.676213 2.24414 0.449657 1.52236 0.182916L1.16951 0.0525059ZM5.2194 5.68631H18.543C19.5457 5.68631 20.428 5.68754 21.1244 5.76938C21.4704 5.81004 21.7294 5.86653 21.9113 5.93375C22.06 5.9887 22.1103 6.03356 22.1176 6.04004C22.1175 6.03991 22.118 6.04031 22.1176 6.04004C22.1895 6.14024 22.2676 6.32202 22.2371 6.84072C22.2051 7.38664 22.0687 8.11557 21.8608 9.21085L21.8603 9.21358L21.2763 12.1922C21.0874 13.1556 20.9602 13.7961 20.8084 14.2697C20.6643 14.7194 20.5289 14.9131 20.3822 15.0388C20.2357 15.1643 20.0279 15.2646 19.5798 15.3222C19.1078 15.383 18.4856 15.3846 17.5498 15.3846H11.3416C9.68292 15.3846 8.53201 15.3824 7.6649 15.2532C6.82805 15.1284 6.38597 14.9017 6.0669 14.5478C5.69207 14.1323 5.4899 13.7253 5.37061 12.9932C5.24048 12.1943 5.2194 11.0758 5.2194 9.24318V5.68631Z" fill="#AAAAAA"/>
<path fill-rule="evenodd" clip-rule="evenodd" d="M7.31723 23.9998C5.86244 23.9998 4.68311 22.7599 4.68311 21.2306C4.68311 19.7012 5.86244 18.4614 7.31723 18.4614C8.77202 18.4614 9.95135 19.7012 9.95135 21.2306C9.95135 22.7599 8.77202 23.9998 7.31723 23.9998ZM6.43919 21.2306C6.43919 21.7404 6.8323 22.1537 7.31723 22.1537C7.80216 22.1537 8.19527 21.7404 8.19527 21.2306C8.19527 20.7208 7.80216 20.3076 7.31723 20.3076C6.8323 20.3076 6.43919 20.7208 6.43919 21.2306Z" fill="#AAAAAA"/>
<path fill-rule="evenodd" clip-rule="evenodd" d="M17.8537 24.0003C16.399 24.0003 15.2196 22.7604 15.2196 21.2311C15.2196 19.7016 16.399 18.4619 17.8537 18.4619C19.3085 18.4619 20.4878 19.7016 20.4878 21.2311C20.4878 22.7604 19.3085 24.0003 17.8537 24.0003ZM16.9757 21.2311C16.9757 21.7409 17.3688 22.1542 17.8537 22.1542C18.3386 22.1542 18.7318 21.7409 18.7318 21.2311C18.7318 20.7213 18.3386 20.308 17.8537 20.308C17.3688 20.308 16.9757 20.7213 16.9757 21.2311Z" fill="#AAAAAA"/>
</svg>
