<svg width="68" height="42" viewBox="0 0 68 42" fill="none" xmlns="http://www.w3.org/2000/svg">
<rect width="68" height="42" rx="2" fill="#4A72FF"/>
<path d="M14.506 16.66V21.976C14.506 22.608 14.67 23.084 14.998 23.404C15.334 23.724 15.798 23.884 16.39 23.884C16.99 23.884 17.454 23.724 17.782 23.404C18.118 23.084 18.286 22.608 18.286 21.976V16.66H19.654V21.952C19.654 22.632 19.506 23.208 19.21 23.68C18.914 24.152 18.518 24.504 18.022 24.736C17.526 24.968 16.978 25.084 16.378 25.084C15.778 25.084 15.23 24.968 14.734 24.736C14.246 24.504 13.858 24.152 13.57 23.68C13.282 23.208 13.138 22.632 13.138 21.952V16.66H14.506ZM22.8032 19.36C23.0352 19.056 23.3512 18.8 23.7512 18.592C24.1512 18.384 24.6032 18.28 25.1072 18.28C25.6832 18.28 26.2072 18.424 26.6792 18.712C27.1592 18.992 27.5352 19.388 27.8072 19.9C28.0792 20.412 28.2152 21 28.2152 21.664C28.2152 22.328 28.0792 22.924 27.8072 23.452C27.5352 23.972 27.1592 24.38 26.6792 24.676C26.2072 24.964 25.6832 25.108 25.1072 25.108C24.6032 25.108 24.1552 25.008 23.7632 24.808C23.3712 24.6 23.0512 24.344 22.8032 24.04V28.144H21.4352V18.388H22.8032V19.36ZM26.8232 21.664C26.8232 21.208 26.7272 20.816 26.5352 20.488C26.3512 20.152 26.1032 19.9 25.7912 19.732C25.4872 19.556 25.1592 19.468 24.8072 19.468C24.4632 19.468 24.1352 19.556 23.8232 19.732C23.5192 19.908 23.2712 20.164 23.0792 20.5C22.8952 20.836 22.8032 21.232 22.8032 21.688C22.8032 22.144 22.8952 22.544 23.0792 22.888C23.2712 23.224 23.5192 23.48 23.8232 23.656C24.1352 23.832 24.4632 23.92 24.8072 23.92C25.1592 23.92 25.4872 23.832 25.7912 23.656C26.1032 23.472 26.3512 23.208 26.5352 22.864C26.7272 22.52 26.8232 22.12 26.8232 21.664ZM30.936 16.12V25H29.568V16.12H30.936ZM35.6 25.108C34.976 25.108 34.412 24.968 33.908 24.688C33.404 24.4 33.008 24 32.72 23.488C32.432 22.968 32.288 22.368 32.288 21.688C32.288 21.016 32.436 20.42 32.732 19.9C33.028 19.38 33.432 18.98 33.944 18.7C34.456 18.42 35.028 18.28 35.66 18.28C36.292 18.28 36.864 18.42 37.376 18.7C37.888 18.98 38.292 19.38 38.588 19.9C38.884 20.42 39.032 21.016 39.032 21.688C39.032 22.36 38.88 22.956 38.576 23.476C38.272 23.996 37.856 24.4 37.328 24.688C36.808 24.968 36.232 25.108 35.6 25.108ZM35.6 23.92C35.952 23.92 36.28 23.836 36.584 23.668C36.896 23.5 37.148 23.248 37.34 22.912C37.532 22.576 37.628 22.168 37.628 21.688C37.628 21.208 37.536 20.804 37.352 20.476C37.168 20.14 36.924 19.888 36.62 19.72C36.316 19.552 35.988 19.468 35.636 19.468C35.284 19.468 34.956 19.552 34.652 19.72C34.356 19.888 34.12 20.14 33.944 20.476C33.768 20.804 33.68 21.208 33.68 21.688C33.68 22.4 33.86 22.952 34.22 23.344C34.588 23.728 35.048 23.92 35.6 23.92ZM39.9284 21.664C39.9284 21 40.0644 20.412 40.3364 19.9C40.6164 19.388 40.9924 18.992 41.4644 18.712C41.9444 18.424 42.4724 18.28 43.0484 18.28C43.5684 18.28 44.0204 18.384 44.4044 18.592C44.7964 18.792 45.1084 19.044 45.3404 19.348V18.388H46.7204V25H45.3404V24.016C45.1084 24.328 44.7924 24.588 44.3924 24.796C43.9924 25.004 43.5364 25.108 43.0244 25.108C42.4564 25.108 41.9364 24.964 41.4644 24.676C40.9924 24.38 40.6164 23.972 40.3364 23.452C40.0644 22.924 39.9284 22.328 39.9284 21.664ZM45.3404 21.688C45.3404 21.232 45.2444 20.836 45.0524 20.5C44.8684 20.164 44.6244 19.908 44.3204 19.732C44.0164 19.556 43.6884 19.468 43.3364 19.468C42.9844 19.468 42.6564 19.556 42.3524 19.732C42.0484 19.9 41.8004 20.152 41.6084 20.488C41.4244 20.816 41.3324 21.208 41.3324 21.664C41.3324 22.12 41.4244 22.52 41.6084 22.864C41.8004 23.208 42.0484 23.472 42.3524 23.656C42.6644 23.832 42.9924 23.92 43.3364 23.92C43.6884 23.92 44.0164 23.832 44.3204 23.656C44.6244 23.48 44.8684 23.224 45.0524 22.888C45.2444 22.544 45.3404 22.144 45.3404 21.688ZM48.0612 21.664C48.0612 21 48.1972 20.412 48.4692 19.9C48.7492 19.388 49.1252 18.992 49.5972 18.712C50.0772 18.424 50.6092 18.28 51.1932 18.28C51.6252 18.28 52.0492 18.376 52.4652 18.568C52.8892 18.752 53.2252 19 53.4732 19.312V16.12H54.8532V25H53.4732V24.004C53.2492 24.324 52.9372 24.588 52.5372 24.796C52.1452 25.004 51.6932 25.108 51.1812 25.108C50.6052 25.108 50.0772 24.964 49.5972 24.676C49.1252 24.38 48.7492 23.972 48.4692 23.452C48.1972 22.924 48.0612 22.328 48.0612 21.664ZM53.4732 21.688C53.4732 21.232 53.3772 20.836 53.1852 20.5C53.0012 20.164 52.7572 19.908 52.4532 19.732C52.1492 19.556 51.8212 19.468 51.4692 19.468C51.1172 19.468 50.7892 19.556 50.4852 19.732C50.1812 19.9 49.9332 20.152 49.7412 20.488C49.5572 20.816 49.4652 21.208 49.4652 21.664C49.4652 22.12 49.5572 22.52 49.7412 22.864C49.9332 23.208 50.1812 23.472 50.4852 23.656C50.7972 23.832 51.1252 23.92 51.4692 23.92C51.8212 23.92 52.1492 23.832 52.4532 23.656C52.7572 23.48 53.0012 23.224 53.1852 22.888C53.3772 22.544 53.4732 22.144 53.4732 21.688Z" fill="white"/>
</svg>
