<svg width="24" height="24" viewBox="0 0 24 24" fill="none" xmlns="http://www.w3.org/2000/svg">
<path d="M11.1628 18.6978C11.1628 19.1601 11.5377 19.535 12 19.535C12.4624 19.535 12.8372 19.1601 12.8372 18.6978V15.3489C12.8372 14.8866 12.4624 14.5117 12 14.5117C11.5377 14.5117 11.1628 14.8866 11.1628 15.3489V18.6978Z" fill="#4A72FF"/>
<path fill-rule="evenodd" clip-rule="evenodd" d="M12 0C11.2096 0 10.4913 0.226404 9.71224 0.605291C8.95909 0.971554 8.08903 1.51154 7.00226 2.18603L4.69538 3.61775C3.66708 4.25594 2.84365 4.76696 2.209 5.253C1.5518 5.75631 1.04701 6.2689 0.682393 6.93503C0.31853 7.59976 0.154683 8.30706 0.0761193 9.14311C-1.09201e-05 9.9533 -1.08973e-05 10.9441 2.65518e-07 12.1866V13.9869C-1.08973e-05 16.112 -2.2123e-05 17.7897 0.170456 19.1013C0.345343 20.4469 0.712811 21.5331 1.5431 22.3919C2.37721 23.2548 3.43865 23.6402 4.75268 23.823C6.02622 24 7.65272 24 9.70253 24H14.2974C16.3472 24 17.9738 24 19.2473 23.823C20.5613 23.6402 21.6228 23.2548 22.4569 22.3919C23.2871 21.5331 23.6546 20.4469 23.8295 19.1013C24 17.7897 24 16.1121 24 13.9869V12.1866C24 10.9441 24 9.9533 23.9239 9.14311C23.8453 8.30706 23.6814 7.59976 23.3176 6.93503C22.953 6.2689 22.4483 5.75631 21.791 5.253C21.1564 4.76696 20.3329 4.25595 19.3046 3.61776L16.9977 2.18602C15.911 1.51154 15.0409 0.971542 14.2877 0.605291C13.5087 0.226404 12.7904 0 12 0ZM7.84692 3.63251C8.98079 2.92879 9.77805 2.4352 10.4445 2.11111C11.0938 1.79535 11.5537 1.67442 12 1.67442C12.4463 1.67442 12.9062 1.79535 13.5555 2.1111C14.222 2.4352 15.0192 2.92879 16.1531 3.63251L18.3857 5.01809C19.4582 5.68375 20.2112 6.1522 20.773 6.58236C21.3195 7.0009 21.6338 7.3463 21.8488 7.739C22.0646 8.13309 22.1905 8.59384 22.2568 9.29977C22.3247 10.0226 22.3256 10.9348 22.3256 12.2276V13.9256C22.3256 16.1257 22.3239 17.6944 22.1691 18.8855C22.017 20.0554 21.7306 20.7342 21.2531 21.2282C20.7794 21.7181 20.1344 22.009 19.0167 22.1645C17.8719 22.3237 16.3619 22.3256 14.2326 22.3256H9.76744C7.63811 22.3256 6.12818 22.3237 4.98332 22.1645C3.86552 22.009 3.22062 21.7181 2.74693 21.2282C2.26941 20.7342 1.98298 20.0554 1.83091 18.8855C1.67608 17.6944 1.67442 16.1257 1.67442 13.9256V12.2276C1.67442 10.9348 1.67527 10.0226 1.74319 9.29977C1.80952 8.59384 1.93546 8.13309 2.15117 7.739C2.36612 7.3463 2.68056 7.0009 3.22707 6.58236C3.78876 6.1522 4.54179 5.68375 5.61436 5.01809L7.84692 3.63251Z" fill="#4A72FF"/>
</svg>
