<svg width="15" height="13" viewBox="0 0 15 13" fill="none" xmlns="http://www.w3.org/2000/svg">
<path d="M12.9181 7.62168C12.868 7.62168 12.8429 7.62168 12.8429 7.62168C12.3412 7.5707 11.9399 7.41776 11.5385 7.13737C11.5135 7.11188 11.5135 7.11188 11.4884 7.08639C11.3128 6.93344 11.1372 7.00992 11.0619 7.0609L11.0369 7.08639C10.5603 7.44325 10.0335 7.62168 9.40643 7.62168C8.75425 7.62168 8.20241 7.41776 7.70074 7.0354C7.52516 6.90795 7.39974 7.0354 7.39974 7.0354C6.89807 7.44325 6.32114 7.64717 5.66897 7.64717C5.04188 7.64717 4.49004 7.46874 4.01345 7.08639C3.98837 7.0609 3.96328 7.06089 3.9382 7.0354C3.7877 6.90795 3.6372 7.0354 3.6372 7.0354C3.16061 7.41776 2.63385 7.62168 2.03185 7.64717C2.03185 7.64717 1.83118 7.64717 1.83118 7.87658V11.7001C1.83118 12.0315 1.83118 12.3629 1.83118 12.6178C1.83118 12.7197 1.88134 12.9491 2.18235 13.0001H8.00175C8.30275 12.9491 8.35292 12.7197 8.35292 12.6178C8.35292 12.3629 8.35292 12.0315 8.35292 11.7001C8.35292 10.8844 8.35292 10.0687 8.35292 9.25305C8.378 9.15109 8.42817 9.04913 8.679 9.04913C9.55693 9.04913 10.4349 9.04913 11.3128 9.04913C11.3629 9.04913 11.4131 9.04913 11.4633 9.04913C11.5636 9.07462 11.664 9.15109 11.664 9.3805C11.664 10.1707 11.664 10.9354 11.664 11.7001C11.664 12.0315 11.664 12.3119 11.664 12.5668C11.664 12.9236 11.9148 12.9746 11.99 12.9746H12.868C12.9432 12.9746 13.1941 12.9236 13.1941 12.5668C13.1941 12.3119 13.1941 12.0315 13.1941 11.7001V7.95305C13.1439 7.69815 13.0185 7.64717 12.9181 7.62168ZM6.64723 11.2923C6.64723 11.3178 6.64723 11.3432 6.64723 11.3942C6.64723 11.5217 6.57198 11.7256 6.27098 11.7256C5.41813 11.7256 4.56529 11.7256 3.71245 11.7256C3.43653 11.7256 3.36128 11.5981 3.33619 11.4707C3.33619 11.4452 3.33619 11.3942 3.33619 11.3432C3.33619 10.757 3.33619 10.1452 3.33619 9.53344C3.33619 9.07462 3.58703 9.04913 3.68736 9.04913C4.56529 9.04913 5.4683 9.04913 6.34623 9.04913C6.44656 9.04913 6.64723 9.1256 6.64723 9.45697C6.64723 10.0687 6.64723 10.6805 6.64723 11.2923Z" fill="#23262A"/>
<path d="M12.6421 6.34706C13.3194 6.52549 13.9214 6.39804 14.4231 5.91373C14.7492 5.60784 14.9498 5.22549 15 4.79216C15 4.76667 15 4.74118 15 4.74118C14.9498 4.58824 14.8746 4.4098 14.8244 4.30784C14.0719 2.93137 13.3445 1.5549 12.6171 0.178432C12.5167 1.97513e-07 12.3161 0 12.2408 0H2.70903C2.70903 0 2.43311 1.97513e-07 2.33278 0.178432C1.58027 1.5549 0.852843 2.95686 0.125418 4.30784C0.0752508 4.4098 0 4.58824 0 4.76667C0 4.79216 0 4.79216 0 4.81765C0.0501672 5.25098 0.250836 5.63333 0.576923 5.93922C1.12876 6.44902 1.78094 6.57647 2.50836 6.32157C2.9097 6.16863 3.2107 5.91373 3.46154 5.53137C3.48662 5.50588 3.51171 5.4549 3.56187 5.42941C3.71237 5.32745 3.91304 5.35294 4.03846 5.53137C4.16388 5.73529 4.31438 5.91373 4.51505 6.04118C5.04181 6.44902 5.64381 6.52549 6.2709 6.32157C6.67224 6.19412 6.99833 5.91373 7.22408 5.53137C7.3495 5.32745 7.6505 5.30196 7.801 5.53137C7.85117 5.60784 7.90134 5.68431 7.9515 5.76078C8.27759 6.14314 8.67893 6.37255 9.15552 6.42353C9.60702 6.47451 10.0334 6.37255 10.4348 6.09216C10.6605 5.93922 10.8361 5.73529 10.9615 5.53137C11.112 5.32745 11.388 5.32745 11.5134 5.53137C11.7642 5.93922 12.0903 6.19412 12.5418 6.32157L12.6421 6.34706Z" fill="#23262A"/>
</svg>
