<svg width="12" height="15" viewBox="0 0 12 15" fill="none" xmlns="http://www.w3.org/2000/svg">
<path d="M4.34054 12.9053C4.38708 12.9557 4.43305 13.0053 4.47838 13.054C4.48942 13.0659 4.50042 13.0776 4.51137 13.0891M4.34054 12.9053C2.73512 11.1663 0.462896 8.42935 1.11446 5.21956C2.26297 -0.410853 9.74289 -0.40435 10.8855 5.22606C11.556 8.52889 9.13072 11.3246 7.51583 13.054C6.35495 14.3035 5.66901 14.3152 4.51137 13.0891M4.34054 12.9053L4.51137 13.0891" stroke="#23262A"/>
<path d="M5.99995 7.50179C6.81213 7.50179 7.47054 6.77407 7.47054 5.87638C7.47054 4.9787 6.81213 4.25098 5.99995 4.25098C5.18776 4.25098 4.52936 4.9787 4.52936 5.87638C4.52936 6.77407 5.18776 7.50179 5.99995 7.50179Z" stroke="#23262A"/>
</svg>
