<svg width="24" height="24" viewBox="0 0 24 24" fill="none" xmlns="http://www.w3.org/2000/svg">
<path fill-rule="evenodd" clip-rule="evenodd" d="M24 4.17391C24 4.82224 23.5395 5.34783 22.9714 5.34783H1.02857C0.460512 5.34783 0 4.82224 0 4.17391C0 3.52558 0.460512 3 1.02857 3H22.9714C23.5395 3 24 3.52558 24 4.17391Z" fill="#AAAAAA"/>
<path fill-rule="evenodd" clip-rule="evenodd" d="M24 12.0001C24 12.6484 23.5395 13.174 22.9714 13.174H1.02857C0.460512 13.174 0 12.6484 0 12.0001C0 11.3518 0.460512 10.8262 1.02857 10.8262H22.9714C23.5395 10.8262 24 11.3518 24 12.0001Z" fill="#AAAAAA"/>
<path fill-rule="evenodd" clip-rule="evenodd" d="M24 19.8263C24 20.4746 23.5395 21.0002 22.9714 21.0002H1.02857C0.460512 21.0002 0 20.4746 0 19.8263C0 19.1779 0.460512 18.6523 1.02857 18.6523H22.9714C23.5395 18.6523 24 19.1779 24 19.8263Z" fill="#AAAAAA"/>
</svg>
