<svg width="32" height="34" viewBox="0 0 32 34" fill="none" xmlns="http://www.w3.org/2000/svg">
<rect x="0.5" y="0.5" width="31" height="33" rx="8.5" fill="white"/>
<rect x="0.5" y="0.5" width="31" height="33" rx="8.5" stroke="#DDE1EB"/>
<path fill-rule="evenodd" clip-rule="evenodd" d="M16 8C12.6047 8 9.85226 10.9049 9.85226 14.4884V15.0779C9.85226 15.6613 9.68862 16.2318 9.38196 16.7172L8.47081 18.1596C7.41333 19.8338 8.22064 22.1093 10.0599 22.6387C10.6593 22.8112 11.2637 22.9572 11.8717 23.0765L11.8732 23.0808C12.4832 24.7987 14.1136 26 16 26C17.8863 26 19.5167 24.7987 20.1267 23.0808L20.1282 23.0765C20.7362 22.9572 21.3407 22.8112 21.9401 22.6387C23.7794 22.1093 24.5867 19.8338 23.5292 18.1596L22.618 16.7172C22.3114 16.2318 22.1477 15.6613 22.1477 15.0779V14.4884C22.1477 10.9049 19.3953 8 16 8ZM18.6783 23.31C16.8991 23.5344 15.1007 23.5343 13.3215 23.31C13.8855 24.1653 14.8664 24.7442 16 24.7442C17.1335 24.7442 18.1144 24.1653 18.6783 23.31ZM11.0421 14.4884C11.0421 11.5985 13.2619 9.25581 16 9.25581C18.7381 9.25581 20.9578 11.5985 20.9578 14.4884V15.0779C20.9578 15.9093 21.1911 16.722 21.628 17.4138L22.5391 18.8563C23.1461 19.8171 22.6828 21.1233 21.627 21.4272C17.943 22.4876 14.057 22.4876 10.373 21.4272C9.31726 21.1233 8.85389 19.8171 9.46086 18.8563L10.372 17.4138C10.809 16.722 11.0421 15.9093 11.0421 15.0779V14.4884Z" fill="#23262A"/>
</svg>
