<svg width="16" height="18" viewBox="0 0 16 18" fill="none" xmlns="http://www.w3.org/2000/svg">
<path fill-rule="evenodd" clip-rule="evenodd" d="M7.99997 0C4.6047 0 1.85226 2.90494 1.85226 6.48837V7.07785C1.85226 7.6613 1.68862 8.23178 1.38196 8.71719L0.470815 10.1596C-0.586669 11.8338 0.220637 14.1093 2.05988 14.6387C2.65927 14.8112 3.26372 14.9572 3.87169 15.0765L3.87319 15.0808C4.4832 16.7987 6.11359 18 7.99997 18C9.88634 18 11.5167 16.7987 12.1267 15.0808L12.1282 15.0765C12.7362 14.9572 13.3407 14.8112 13.9401 14.6387C15.7794 14.1093 16.5867 11.8338 15.5292 10.1596L14.618 8.71719C14.3114 8.23178 14.1477 7.6613 14.1477 7.07785V6.48837C14.1477 2.90494 11.3953 0 7.99997 0ZM10.6783 15.31C8.89913 15.5344 7.10074 15.5343 5.32153 15.31C5.8855 16.1653 6.86641 16.7442 7.99997 16.7442C9.13346 16.7442 10.1144 16.1653 10.6783 15.31ZM3.04214 6.48837C3.04214 3.59851 5.26185 1.25581 7.99997 1.25581C10.7381 1.25581 12.9578 3.59851 12.9578 6.48837V7.07785C12.9578 7.90928 13.1911 8.72205 13.628 9.41383L14.5391 10.8563C15.1461 11.8171 14.6828 13.1233 13.627 13.4272C9.94298 14.4876 6.05705 14.4876 2.37295 13.4272C1.31726 13.1233 0.853887 11.8171 1.46086 10.8563L2.372 9.41383C2.80897 8.72205 3.04214 7.90928 3.04214 7.07785V6.48837Z" fill="#23262A"/>
</svg>
