<svg width="23" height="16" viewBox="0 0 23 16" fill="none" xmlns="http://www.w3.org/2000/svg">
<rect x="0.25" y="0.25" width="22.5" height="15.5" rx="1.75" fill="white" stroke="#F5F5F5" stroke-width="0.5"/>
<mask id="mask0_541_1018" style="mask-type:luminance" maskUnits="userSpaceOnUse" x="0" y="0" width="23" height="16">
<rect x="0.25" y="0.25" width="22.5" height="15.5" rx="1.75" fill="white" stroke="white" stroke-width="0.5"/>
</mask>
<g mask="url(#mask0_541_1018)">
<path fill-rule="evenodd" clip-rule="evenodd" d="M0 5.33333H23V0H0V5.33333Z" fill="#E41D33"/>
<path fill-rule="evenodd" clip-rule="evenodd" d="M0 16H23V10.6667H0V16Z" fill="#262626"/>
<path d="M10.2061 9.59105C10.2061 9.59105 10.2131 9.7 10.3086 9.75448C10.3086 9.75448 10.2814 9.8364 10.384 9.88391C10.4866 9.93141 10.8566 10.0064 11.5005 10.0064C12.1444 10.0064 12.5073 9.93838 12.6033 9.89044C12.6993 9.84294 12.7059 9.73399 12.7059 9.73399C12.7059 9.73399 12.8085 9.67952 12.8019 9.61154C12.7949 9.54355 12.6581 9.4686 12.6581 9.4686C12.6581 9.4686 12.6239 9.38013 12.5279 9.34614C12.4319 9.31215 12.1238 9.49605 11.5347 9.4686C10.9455 9.44158 10.6102 9.35268 10.5006 9.35965C10.391 9.36662 10.3433 9.47557 10.3433 9.47557C10.3433 9.47557 10.2196 9.53004 10.2061 9.59105Z" fill="#BF9300"/>
<path d="M10.2815 9.58457C10.2758 9.6251 10.3639 9.714 10.3639 9.714C10.3639 9.714 10.3639 9.81598 10.4529 9.84343C10.5419 9.87089 10.9048 9.93887 11.494 9.9319C12.0831 9.92492 12.5008 9.89093 12.5486 9.84997C12.5964 9.809 12.6376 9.72054 12.6376 9.72054C12.6376 9.72054 12.7336 9.65255 12.7266 9.59808C12.7196 9.54361 12.5828 9.50962 12.5828 9.50962C12.5828 9.50962 12.5442 9.42769 12.4986 9.39369C12.4531 9.3597 12.1585 9.52966 11.5282 9.52966C10.9114 9.52966 10.5555 9.37975 10.4941 9.38672C10.4323 9.39369 10.3915 9.50918 10.3915 9.50918C10.3915 9.50918 10.2885 9.53707 10.2815 9.58457Z" fill="#EEEEEE"/>
<path d="M12.8838 6.94237C12.8838 6.94237 12.8703 6.6225 12.5757 6.66303C12.2811 6.70399 12.2605 6.84693 11.9454 6.88093L11.8805 6.88703C11.8279 6.74534 11.7989 6.59609 11.7946 6.44513C11.7946 6.24075 11.8564 6.15228 11.6438 6.05031C11.4316 5.94833 11.3904 6.04333 11.3904 6.04333C11.3904 6.04333 11.226 5.96141 11.1506 6.02285C11.0752 6.0843 11.1165 6.24075 11.1506 6.19325C11.1848 6.14575 11.322 6.28171 11.322 6.28171C11.3685 6.50789 11.2366 6.7528 11.1463 6.88921C11.1151 6.88616 11.0902 6.88485 11.0551 6.88093C10.7399 6.84693 10.7193 6.70399 10.4248 6.66303C10.1302 6.62207 10.1166 6.94237 10.1166 6.94237L10 9.41418L10.2398 9.23028L10.2411 9.20108L10.7399 8.7605L10.8232 8.6777L10.6167 9.27778C10.6167 9.27778 10.3016 9.2573 10.3906 9.50919C10.3906 9.50919 10.4383 9.36625 10.5207 9.39327C10.6032 9.42028 10.8425 9.48173 10.8425 9.48173L10.9249 9.61116L11.0275 9.51572L11.3492 9.50221C11.3492 9.50221 11.4518 9.52923 11.4452 9.61813C11.4641 9.5799 11.4698 9.53657 11.4614 9.4948L11.5583 9.48827C11.5479 9.5321 11.5532 9.57817 11.5732 9.61857C11.5662 9.5301 11.6692 9.50265 11.6692 9.50265L11.9909 9.51616L12.094 9.6116L12.1764 9.48217C12.1764 9.48217 12.4157 9.42072 12.4977 9.3937C12.5796 9.36668 12.6278 9.50962 12.6278 9.50962C12.7168 9.25773 12.4017 9.27822 12.4017 9.27822L12.2049 8.70602L12.2601 8.76093L12.7589 9.20152L12.7602 9.23072L13 9.41462L12.8838 6.94237ZM11.5219 8.44062C11.0279 8.13731 10.9871 7.37163 10.9871 7.37163C10.9871 7.37163 11.2927 7.35594 11.5145 7.20123C11.7143 7.37773 12.0554 7.35768 12.0554 7.35768C12.0554 7.35768 12.0321 8.12642 11.5219 8.44062ZM12.6511 6.84737L12.2333 7.2422L12.1632 7.27009C12.0913 7.2727 11.7415 7.27357 11.521 7.07878C11.2471 7.26965 10.8705 7.28316 10.8705 7.28316L10.8122 7.26006L10.3498 6.84737L10.2284 6.89705C10.2336 6.84781 10.2608 6.73711 10.4116 6.7589C10.6588 6.7942 10.761 6.9293 11.0213 6.95632L11.095 6.96373L11.0691 6.99685C11.1094 6.99685 11.1691 6.98508 11.2129 6.97549L11.2624 6.98029L11.2401 7.05786C11.2751 7.0474 11.326 7.01733 11.3676 6.99075L11.4816 7.00164L11.5075 7.03738L11.5942 6.99423L11.6525 6.98857C11.703 7.01776 11.7748 7.04391 11.7748 7.04391L11.7884 6.97593C11.8502 7.01689 11.9528 7.01689 11.9528 7.01689C11.941 7.00731 11.9291 6.9829 11.9169 6.96198L11.98 6.95545C12.2404 6.92843 12.3421 6.79333 12.5897 6.75803C12.7405 6.73668 12.7677 6.84693 12.7729 6.89618L12.6511 6.84737Z" fill="#BF9300"/>
<path d="M11.3562 8.42709L11.1095 9.35968L10.6987 9.27819L11.1235 8.07976L11.3562 8.42709ZM11.6626 8.42709L11.909 9.35968L12.3202 9.27819L11.8954 8.07976L11.6626 8.42709Z" fill="#EEEEEE"/>
<path d="M11.0898 7.44657C11.0898 7.44657 11.124 7.8414 11.302 8.14776V7.3581C11.302 7.3581 11.1854 7.42609 11.0898 7.44657ZM11.9459 7.46008C11.9459 7.46008 11.9117 7.85491 11.7338 8.16127V7.37161C11.7333 7.37161 11.8499 7.4396 11.9459 7.46008Z" fill="#BF9300"/>
<path d="M11.1714 6.11172C11.1714 6.11172 11.2192 6.06422 11.3564 6.15923C11.4453 6.22111 11.5243 6.26817 11.5243 6.26817C11.5243 6.26817 11.5804 6.20934 11.6628 6.22285C11.7452 6.23636 11.6991 6.3501 11.7127 6.58805C11.7263 6.82642 11.8223 6.9284 11.8223 6.9284L11.7057 6.86041L11.7127 6.93537L11.5826 6.87392L11.5207 6.96239L11.4589 6.86695L11.359 6.92753L11.3288 6.84647L11.2122 6.90792C11.2122 6.90792 11.3835 6.69699 11.3971 6.46515C11.4011 6.39586 11.3835 6.24028 11.3835 6.24028C11.3835 6.24028 11.2744 6.10475 11.1714 6.11172Z" fill="#EEEEEE"/>
<path d="M10.5553 9.63209C10.4769 9.67872 10.5076 9.70704 10.5553 9.72752C10.6031 9.74801 10.8907 9.78243 11.4732 9.79551C12.0689 9.80902 12.4389 9.74103 12.4867 9.71358C12.5345 9.68656 12.5415 9.63862 12.4595 9.62511C12.3771 9.6116 11.9664 9.67959 11.4662 9.67959C10.8499 9.68002 10.5895 9.6116 10.5553 9.63209Z" fill="#BF9300"/>
</g>
</svg>
