<svg width="15" height="14" viewBox="0 0 15 14" fill="none" xmlns="http://www.w3.org/2000/svg">
<path d="M13.8878 12.7378L11.563 10.4974L11.5085 10.4157C11.4072 10.3163 11.2687 10.2603 11.1241 10.2603C10.9795 10.2603 10.8409 10.3163 10.7396 10.4157C8.76388 12.2024 5.7195 12.2995 3.62549 10.6426C1.53148 8.98578 1.03763 6.08907 2.47146 3.87361C3.90529 1.65814 6.82186 0.811394 9.28693 1.89492C11.752 2.97845 13.0006 5.65602 12.2047 8.15189C12.1474 8.3322 12.1943 8.52828 12.3276 8.66627C12.461 8.80426 12.6606 8.8632 12.8513 8.82089C13.042 8.77857 13.1948 8.64143 13.2521 8.46112C14.2035 5.49926 12.7666 2.31187 9.87078 0.960868C6.975 -0.39013 3.48944 0.500712 1.66891 3.05711C-0.151624 5.6135 0.239232 9.06826 2.58863 11.1865C4.93803 13.3047 8.5409 13.4508 11.0665 11.5301L13.125 13.5138C13.3376 13.7178 13.6813 13.7178 13.8938 13.5138C14.1062 13.307 14.1062 12.9739 13.8938 12.767L13.8878 12.7378Z" fill="#B2BAC6"/>
</svg>
