<svg width="239" height="190" viewBox="0 0 239 190" fill="none" xmlns="http://www.w3.org/2000/svg">
<ellipse cx="119.267" cy="103.288" rx="47.6858" ry="47.3624" fill="#4A72FF"/>
<g filter="url(#filter0_d_164_75)">
<path d="M102.723 106.672L114.451 116.821L135.811 89.7563" stroke="white" stroke-width="5" stroke-linecap="round" stroke-linejoin="round"/>
</g>
<rect width="4.76822" height="5.5279" rx="1" transform="matrix(0.982157 -0.188061 0.190545 0.981679 122.975 28.1509)" fill="url(#paint0_linear_164_75)"/>
<rect width="4.76175" height="5.53548" rx="1" transform="matrix(0.875256 0.483659 -0.488711 0.872446 197.909 146.249)" fill="url(#paint1_linear_164_75)"/>
<rect width="4.76175" height="5.53548" rx="1" transform="matrix(0.875256 0.483659 -0.488711 0.872446 64.0505 182.867)" fill="url(#paint2_linear_164_75)"/>
<rect x="91.2009" y="43.6753" width="2.20055" height="2.5499" rx="1" fill="url(#paint3_linear_164_75)"/>
<rect width="4.047" height="4.70265" rx="1" transform="matrix(0.89225 0.451541 -0.456446 0.889751 194.619 25.6337)" fill="url(#paint4_linear_164_75)"/>
<rect x="188.354" y="46.2546" width="2.20055" height="2.5499" rx="1" fill="url(#paint5_linear_164_75)"/>
<rect x="181.86" y="142.048" width="2.20055" height="2.5499" rx="1" fill="url(#paint6_linear_164_75)"/>
<rect x="199.482" y="105.204" width="2.20055" height="2.5499" rx="1" fill="url(#paint7_linear_164_75)"/>
<rect x="224.521" y="72.0454" width="2.20055" height="2.5499" rx="1" fill="url(#paint8_linear_164_75)"/>
<rect x="204.117" y="130.995" width="2.20055" height="2.5499" rx="1" fill="url(#paint9_linear_164_75)"/>
<rect x="158.804" y="179.648" width="2.20055" height="2.5499" rx="1" fill="url(#paint10_linear_164_75)"/>
<rect width="3.13903" height="3.64472" rx="1" transform="matrix(0.923801 -0.382873 0.387337 0.921938 65.8262 34.4829)" fill="url(#paint11_linear_164_75)"/>
<rect width="3.1403" height="3.64324" rx="1" transform="matrix(0.955089 0.296319 -0.300015 0.953934 6.14062 164.571)" fill="url(#paint12_linear_164_75)"/>
<rect width="1.18927" height="1.37974" rx="0.594634" transform="matrix(0.955089 0.296319 -0.300015 0.953934 56.1528 56.3866)" fill="url(#paint13_linear_164_75)"/>
<rect width="1.18927" height="1.37974" rx="0.594634" transform="matrix(0.955089 0.296319 -0.300015 0.953934 177.638 63.7551)" fill="url(#paint14_linear_164_75)"/>
<rect width="1.18927" height="1.37974" rx="0.594634" transform="matrix(0.955089 0.296319 -0.300015 0.953934 226.789 84.9403)" fill="url(#paint15_linear_164_75)"/>
<rect width="1.18927" height="1.37974" rx="0.594634" transform="matrix(0.955089 0.296319 -0.300015 0.953934 65.9968 142.385)" fill="url(#paint16_linear_164_75)"/>
<rect width="1.18927" height="1.37974" rx="0.594634" transform="matrix(0.955089 0.296319 -0.300015 0.953934 22.7668 13.0953)" fill="url(#paint17_linear_164_75)"/>
<rect width="2.25832" height="2.62" rx="1" transform="matrix(0.955089 0.296319 -0.300015 0.953934 31.4839 102.179)" fill="url(#paint18_linear_164_75)"/>
<rect width="2.25832" height="2.62" rx="1" transform="matrix(0.955089 0.296319 -0.300015 0.953934 34.3997 135.492)" fill="url(#paint19_linear_164_75)"/>
<rect width="2.25832" height="2.62" rx="1" transform="matrix(0.955089 0.296319 -0.300015 0.953934 101.029 167.616)" fill="url(#paint20_linear_164_75)"/>
<rect width="3.1403" height="3.64324" rx="1" transform="matrix(0.955089 0.296319 -0.300015 0.953934 139.366 12.1746)" fill="url(#paint21_linear_164_75)"/>
<rect width="4.04566" height="4.69361" rx="1" transform="matrix(0.955089 0.296319 -0.300015 0.953934 43.2339 43.4911)" fill="url(#paint22_linear_164_75)"/>
<rect width="4.0207" height="4.72271" rx="1" transform="matrix(-0.0465497 -0.998916 0.998945 -0.0459219 117.315 4.23315)" fill="url(#paint23_linear_164_75)"/>
<rect width="6.22134" height="7.25775" rx="1" transform="matrix(-0.712927 0.701238 -0.706072 -0.70814 9.56006 82.7147)" fill="url(#paint24_linear_164_75)"/>
<rect width="6.24052" height="7.23531" rx="1" transform="matrix(0.979369 -0.202081 0.204735 0.978817 231.011 172.727)" fill="url(#paint25_linear_164_75)"/>
<defs>
<filter id="filter0_d_164_75" x="97.2231" y="87.2562" width="44.0881" height="39.0643" filterUnits="userSpaceOnUse" color-interpolation-filters="sRGB">
<feFlood flood-opacity="0" result="BackgroundImageFix"/>
<feColorMatrix in="SourceAlpha" type="matrix" values="0 0 0 0 0 0 0 0 0 0 0 0 0 0 0 0 0 0 127 0" result="hardAlpha"/>
<feOffset dy="4"/>
<feGaussianBlur stdDeviation="1.5"/>
<feColorMatrix type="matrix" values="0 0 0 0 0 0 0 0 0 0 0 0 0 0 0 0 0 0 0.15 0"/>
<feBlend mode="normal" in2="BackgroundImageFix" result="effect1_dropShadow_164_75"/>
<feBlend mode="normal" in="SourceGraphic" in2="effect1_dropShadow_164_75" result="shape"/>
</filter>
<linearGradient id="paint0_linear_164_75" x1="2.38411" y1="0" x2="2.38411" y2="5.5279" gradientUnits="userSpaceOnUse">
<stop stop-color="#4A72FF"/>
<stop offset="1" stop-color="#A3ADFF"/>
</linearGradient>
<linearGradient id="paint1_linear_164_75" x1="2.38088" y1="0" x2="2.38088" y2="5.53548" gradientUnits="userSpaceOnUse">
<stop stop-color="#4A72FF"/>
<stop offset="1" stop-color="#A3ADFF"/>
</linearGradient>
<linearGradient id="paint2_linear_164_75" x1="2.38088" y1="0" x2="2.38088" y2="5.53548" gradientUnits="userSpaceOnUse">
<stop stop-color="#4A72FF"/>
<stop offset="1" stop-color="#A3ADFF"/>
</linearGradient>
<linearGradient id="paint3_linear_164_75" x1="92.3012" y1="43.6753" x2="92.3012" y2="46.2252" gradientUnits="userSpaceOnUse">
<stop stop-color="#4A72FF"/>
<stop offset="1" stop-color="#A3ADFF"/>
</linearGradient>
<linearGradient id="paint4_linear_164_75" x1="2.0235" y1="0" x2="2.0235" y2="4.70265" gradientUnits="userSpaceOnUse">
<stop stop-color="#4A72FF"/>
<stop offset="1" stop-color="#A3ADFF"/>
</linearGradient>
<linearGradient id="paint5_linear_164_75" x1="189.454" y1="46.2546" x2="189.454" y2="48.8045" gradientUnits="userSpaceOnUse">
<stop stop-color="#4A72FF"/>
<stop offset="1" stop-color="#A3ADFF"/>
</linearGradient>
<linearGradient id="paint6_linear_164_75" x1="182.961" y1="142.048" x2="182.961" y2="144.598" gradientUnits="userSpaceOnUse">
<stop stop-color="#4A72FF"/>
<stop offset="1" stop-color="#A3ADFF"/>
</linearGradient>
<linearGradient id="paint7_linear_164_75" x1="200.582" y1="105.204" x2="200.582" y2="107.754" gradientUnits="userSpaceOnUse">
<stop stop-color="#4A72FF"/>
<stop offset="1" stop-color="#A3ADFF"/>
</linearGradient>
<linearGradient id="paint8_linear_164_75" x1="225.622" y1="72.0454" x2="225.622" y2="74.5953" gradientUnits="userSpaceOnUse">
<stop stop-color="#4A72FF"/>
<stop offset="1" stop-color="#A3ADFF"/>
</linearGradient>
<linearGradient id="paint9_linear_164_75" x1="205.218" y1="130.995" x2="205.218" y2="133.545" gradientUnits="userSpaceOnUse">
<stop stop-color="#4A72FF"/>
<stop offset="1" stop-color="#A3ADFF"/>
</linearGradient>
<linearGradient id="paint10_linear_164_75" x1="159.904" y1="179.648" x2="159.904" y2="182.198" gradientUnits="userSpaceOnUse">
<stop stop-color="#4A72FF"/>
<stop offset="1" stop-color="#A3ADFF"/>
</linearGradient>
<linearGradient id="paint11_linear_164_75" x1="1.56952" y1="0" x2="1.56952" y2="3.64472" gradientUnits="userSpaceOnUse">
<stop stop-color="#4A72FF"/>
<stop offset="1" stop-color="#A3ADFF"/>
</linearGradient>
<linearGradient id="paint12_linear_164_75" x1="1.57015" y1="0" x2="1.57015" y2="3.64324" gradientUnits="userSpaceOnUse">
<stop stop-color="#4A72FF"/>
<stop offset="1" stop-color="#A3ADFF"/>
</linearGradient>
<linearGradient id="paint13_linear_164_75" x1="0.594634" y1="0" x2="0.594634" y2="1.37974" gradientUnits="userSpaceOnUse">
<stop stop-color="#4A72FF"/>
<stop offset="1" stop-color="#A3ADFF"/>
</linearGradient>
<linearGradient id="paint14_linear_164_75" x1="0.594634" y1="0" x2="0.594634" y2="1.37974" gradientUnits="userSpaceOnUse">
<stop stop-color="#4A72FF"/>
<stop offset="1" stop-color="#A3ADFF"/>
</linearGradient>
<linearGradient id="paint15_linear_164_75" x1="0.594634" y1="0" x2="0.594634" y2="1.37974" gradientUnits="userSpaceOnUse">
<stop stop-color="#4A72FF"/>
<stop offset="1" stop-color="#A3ADFF"/>
</linearGradient>
<linearGradient id="paint16_linear_164_75" x1="0.594634" y1="0" x2="0.594634" y2="1.37974" gradientUnits="userSpaceOnUse">
<stop stop-color="#4A72FF"/>
<stop offset="1" stop-color="#A3ADFF"/>
</linearGradient>
<linearGradient id="paint17_linear_164_75" x1="0.594634" y1="0" x2="0.594634" y2="1.37974" gradientUnits="userSpaceOnUse">
<stop stop-color="#4A72FF"/>
<stop offset="1" stop-color="#A3ADFF"/>
</linearGradient>
<linearGradient id="paint18_linear_164_75" x1="1.12916" y1="0" x2="1.12916" y2="2.62" gradientUnits="userSpaceOnUse">
<stop stop-color="#4A72FF"/>
<stop offset="1" stop-color="#A3ADFF"/>
</linearGradient>
<linearGradient id="paint19_linear_164_75" x1="1.12916" y1="0" x2="1.12916" y2="2.62" gradientUnits="userSpaceOnUse">
<stop stop-color="#4A72FF"/>
<stop offset="1" stop-color="#A3ADFF"/>
</linearGradient>
<linearGradient id="paint20_linear_164_75" x1="1.12916" y1="0" x2="1.12916" y2="2.62" gradientUnits="userSpaceOnUse">
<stop stop-color="#4A72FF"/>
<stop offset="1" stop-color="#A3ADFF"/>
</linearGradient>
<linearGradient id="paint21_linear_164_75" x1="1.57015" y1="0" x2="1.57015" y2="3.64324" gradientUnits="userSpaceOnUse">
<stop stop-color="#4A72FF"/>
<stop offset="1" stop-color="#A3ADFF"/>
</linearGradient>
<linearGradient id="paint22_linear_164_75" x1="2.02283" y1="0" x2="2.02283" y2="4.69361" gradientUnits="userSpaceOnUse">
<stop stop-color="#4A72FF"/>
<stop offset="1" stop-color="#A3ADFF"/>
</linearGradient>
<linearGradient id="paint23_linear_164_75" x1="2.01035" y1="0" x2="2.01035" y2="4.72271" gradientUnits="userSpaceOnUse">
<stop stop-color="#4A72FF"/>
<stop offset="1" stop-color="#A3ADFF"/>
</linearGradient>
<linearGradient id="paint24_linear_164_75" x1="3.11067" y1="0" x2="3.11067" y2="7.25775" gradientUnits="userSpaceOnUse">
<stop stop-color="#4A72FF"/>
<stop offset="1" stop-color="#A3ADFF"/>
</linearGradient>
<linearGradient id="paint25_linear_164_75" x1="3.12026" y1="0" x2="3.12026" y2="7.23531" gradientUnits="userSpaceOnUse">
<stop stop-color="#4A72FF"/>
<stop offset="1" stop-color="#A3ADFF"/>
</linearGradient>
</defs>
</svg>
