<svg width="23" height="16" viewBox="0 0 23 16" fill="none" xmlns="http://www.w3.org/2000/svg">
<rect width="23" height="16" rx="2" fill="white"/>
<mask id="mask0_541_1036" style="mask-type:luminance" maskUnits="userSpaceOnUse" x="0" y="0" width="23" height="16">
<rect width="23" height="16" rx="2" fill="white"/>
</mask>
<g mask="url(#mask0_541_1036)">
<rect width="23" height="16" fill="#E92434"/>
<path fill-rule="evenodd" clip-rule="evenodd" d="M16.4284 8C16.4284 10.651 14.2218 12.8 11.4999 12.8C8.77789 12.8 6.57129 10.651 6.57129 8C6.57129 5.34903 8.77789 3.2 11.4999 3.2C14.2218 3.2 16.4284 5.34903 16.4284 8ZM9.857 8C9.857 9.7732 11.224 11.2355 12.9876 11.4418C12.5301 11.6295 12.0274 11.7333 11.4999 11.7333C9.38277 11.7333 7.66653 10.0619 7.66653 8C7.66653 5.93814 9.38277 4.26667 11.4999 4.26667C12.0274 4.26667 12.5301 4.37047 12.9876 4.55825C11.224 4.76455 9.857 6.2268 9.857 8ZM12.4276 10.1241L13.4337 8.93608L14.9149 9.47498L14.0657 8.17597L15.0496 6.97053L13.5187 7.35569L12.6456 6.07179L12.5487 7.60884L11.0251 8.02078L12.4961 8.58557L12.4276 10.1241Z" fill="white"/>
</g>
</svg>
